<svg width="512" height="512" viewBox="0 0 512 512" fill="none" xmlns="http://www.w3.org/2000/svg">
<path d="M256 0C114.613 0 0 114.617 0 256C0 397.391 114.613 512 256 512C397.387 512 512 397.391 512 256C512 114.617 397.387 0 256 0ZM256 128C273.674 128 288 142.328 288 160C288 177.68 273.674 192 256 192C238.326 192 224 177.68 224 160C224 142.328 238.326 128 256 128ZM304 384H208C199.164 384 192 376.844 192 368C192 359.164 199.164 352 208 352H224V256H208C199.164 256 192 248.844 192 240C192 231.164 199.164 224 208 224H272C280.836 224 288 231.164 288 240V352H304C312.836 352 320 359.164 320 368C320 376.844 312.836 384 304 384Z" fill="#FFCD2E"/>
</svg>
