<svg width="322" height="31" viewBox="0 0 322 31" fill="none" xmlns="http://www.w3.org/2000/svg">
<path d="M116.843 7.39108C112.994 -0.421731 108.87 -0.967498 105.03 0.894728C103.866 1.45924 102.865 2.18327 102.138 3.13233H91.8637C91.1367 2.18327 90.1361 1.45924 88.9715 0.894728C85.1319 -0.967498 81.0076 -0.421731 77.1587 7.39108C73.3067 15.2047 71.1899 27.3267 75.0295 29.1891C77.6982 30.4823 82.5382 26.477 86.5358 21.2933H107.463C111.46 26.477 116.3 30.4823 118.969 29.1891C122.812 27.3267 120.692 15.2047 116.843 7.39108ZM90.9225 12.2733C90.9225 12.5889 90.6583 12.8448 90.333 12.8448H87.5144V15.7104C87.5144 16.0259 87.2517 16.2819 86.9265 16.2819H85.9292H84.9317C84.6081 16.2819 84.3439 16.0259 84.3439 15.7104V12.8447H81.5253C81.2002 12.8447 80.9359 12.5888 80.9359 12.2732V10.3342C80.9359 10.0186 81.2001 9.76289 81.5253 9.76289H84.344V6.89647C84.344 6.58101 84.6082 6.32497 84.9318 6.32497H85.9294H86.9267C87.2519 6.32497 87.5146 6.58091 87.5146 6.89647V9.76289H90.3332C90.6585 9.76289 90.9227 10.0187 90.9227 10.3342V12.2733H90.9225ZM109.15 7.39348C109.15 8.37893 108.346 9.17744 107.352 9.17744C106.357 9.17744 105.554 8.37893 105.554 7.39348C105.554 6.40803 106.357 5.60952 107.352 5.60952C108.346 5.60952 109.15 6.40803 109.15 7.39348ZM103.644 12.8555C102.649 12.8555 101.846 12.0562 101.846 11.0708C101.846 10.0869 102.649 9.28761 103.644 9.28761C104.638 9.28761 105.441 10.0869 105.441 11.0708C105.441 12.0561 104.638 12.8555 103.644 12.8555ZM111.067 12.8555C110.072 12.8555 109.269 12.0562 109.269 11.0708C109.269 10.0869 110.072 9.28761 111.067 9.28761C112.061 9.28761 112.864 10.0869 112.864 11.0708C112.864 12.0561 112.061 12.8555 111.067 12.8555ZM107.352 16.5335C106.357 16.5335 105.554 15.735 105.554 14.7496C105.554 13.7641 106.357 12.9656 107.352 12.9656C108.346 12.9656 109.15 13.7641 109.15 14.7496C109.15 15.735 108.346 16.5335 107.352 16.5335Z" fill="#A60DFF"/>
<path fill-rule="evenodd" clip-rule="evenodd" d="M26.2988 15.623L23.6094 15.6406H18.4062V18.1895C18.4062 18.8691 18.3945 19.4258 18.3711 19.8594C18.0195 20.0234 17.5156 20.1055 16.8594 20.1055C15.6406 20.1055 14.6797 19.7012 13.9766 18.8926C13.2852 18.084 12.9395 17.0469 12.9395 15.7812C12.9277 13.9648 13.666 12.3594 15.1543 10.9648C16.6426 9.57031 18.6992 8.87305 21.3242 8.87305C22.7656 8.87305 24.3477 9.13672 26.0703 9.66406V1.17383C26.0469 1.17383 25.8945 1.12109 25.6133 1.01562C24.0195 0.429688 21.8574 0.136719 19.127 0.136719C13.5605 0.136719 8.99609 1.4668 5.43359 4.12695C1.88281 6.78711 0.107422 10.3496 0.107422 14.8145C0.107422 17.0879 0.552734 19.1445 1.44336 20.9844C2.33398 22.8125 3.56445 24.3711 5.13477 25.6602C6.70508 26.9492 8.5625 27.9453 10.707 28.6484C12.8516 29.3398 15.1484 29.6855 17.5977 29.6855C20.0469 29.6855 23.3281 29.3398 27.4414 28.6484V15.6055C27.3359 15.6172 26.9551 15.623 26.2988 15.623ZM46.5418 2.35156L32.5848 29H44.9949L45.9441 26.2227H53.5379L54.6453 29H68.9012L53.9246 2.24609C53.5496 1.57812 53.034 1.0918 52.3777 0.787109C51.7332 0.470703 51.1355 0.3125 50.5848 0.3125C50.034 0.3125 49.5711 0.359375 49.1961 0.453125C47.907 0.769531 47.0223 1.40234 46.5418 2.35156ZM52.4832 20.6504H46.8055L49.7938 13.0566L52.4832 20.6504ZM147.395 0.927734H127.162V29H148.01V20.8613H138.096V18.207H147.359V11.3164H138.096V9.01367H147.395V0.927734ZM203.711 0.927734H177.133V10.0332H184.955V29H195.889V10.0332H203.711V0.927734ZM226.275 8.62695C228.173 8.62695 229.122 9.61719 229.122 11.5977C229.122 12.0898 229.029 12.6758 228.841 13.3555C228.232 15.5586 227.195 17.4336 225.73 18.9805C224.722 20.0352 223.825 20.5566 223.04 20.5449C221.071 20.5449 220.087 19.5723 220.087 17.627C220.087 17.0527 220.181 16.4258 220.368 15.7461C220.966 13.5898 222.021 11.7324 223.532 10.1738C224.54 9.14258 225.454 8.62695 226.275 8.62695ZM213.495 25.6426C216.554 28.3379 220.163 29.6855 224.323 29.6855C227.089 29.6855 229.691 29.082 232.128 27.875C234.566 26.6562 236.517 24.9277 237.982 22.6895C239.446 20.4395 240.179 17.873 240.179 14.9902C240.179 12.6699 239.769 10.5898 238.948 8.75C238.128 6.91016 236.997 5.35742 235.556 4.0918C234.126 2.81445 232.445 1.83594 230.511 1.15625C228.577 0.476562 226.339 0.136719 223.796 0.136719C221.265 0.136719 218.816 0.757812 216.448 2C214.081 3.24219 212.195 4.97656 210.788 7.20312C209.382 9.42969 208.679 11.9902 208.679 14.8848C208.679 17.7676 209.441 20.375 210.964 22.707C211.679 23.8086 212.523 24.7871 213.495 25.6426ZM259.033 10.9297L255.816 0.927734H243.213L253.092 28.209C253.525 29.3809 254.211 29.9668 255.148 29.9668C256.086 29.9668 256.936 29.4629 257.697 28.4551L266.152 17.082L274.01 28.4199C274.76 29.498 275.609 30.0371 276.559 30.0371C277.508 30.0371 278.182 29.4512 278.58 28.2793L287.756 0.927734H277.701L274.537 10.8242L267.998 1.52539C267.635 1.02148 267.336 0.769531 267.102 0.769531C266.867 0.769531 266.691 0.816406 266.574 0.910156C266.457 1.00391 266.281 1.20898 266.047 1.52539L259.033 10.9297ZM296.643 0.927734H293.796V29H303.657V19.3496L318.089 29H321.868V0.927734H311.971V11.8613L296.643 0.927734Z" fill="black"/>
</svg>
