<svg width="14" height="14" viewBox="0 0 14 14" fill="none" xmlns="http://www.w3.org/2000/svg">
<path d="M13.9648 4.99168C13.8745 4.71257 13.627 4.51433 13.3341 4.48794L9.35567 4.12669L7.7825 0.444534C7.66651 0.17468 7.40233 0 7.10881 0C6.8153 0 6.55112 0.17468 6.43512 0.445165L4.86195 4.12669L0.882913 4.48794C0.590553 4.51496 0.343625 4.71257 0.252867 4.99168C0.162109 5.27079 0.245926 5.57692 0.467089 5.7699L3.47429 8.40724L2.58754 12.3134C2.52265 12.6006 2.63413 12.8975 2.87243 13.0698C3.00052 13.1623 3.15039 13.2094 3.30151 13.2094C3.43181 13.2094 3.56106 13.1743 3.67705 13.1049L7.10881 11.0538L10.5393 13.1049C10.7903 13.2559 11.1068 13.2421 11.3446 13.0698C11.583 12.897 11.6943 12.6 11.6295 12.3134L10.7427 8.40724L13.7499 5.77043C13.9711 5.57692 14.0555 5.27131 13.9648 4.99168V4.99168Z" fill="#A60DFF"/>
</svg>
