<svg width="14" height="14" viewBox="0 0 14 14" fill="none" xmlns="http://www.w3.org/2000/svg">
<path d="M13.748 4.99168C13.6577 4.71257 13.4102 4.51433 13.1173 4.48794L9.13888 4.12669L7.56571 0.444534C7.44971 0.17468 7.18553 0 6.89202 0C6.5985 0 6.33432 0.17468 6.21833 0.445165L4.64516 4.12669L0.666116 4.48794C0.373756 4.51496 0.126828 4.71257 0.03607 4.99168C-0.0546878 5.27079 0.0291291 5.57692 0.250292 5.7699L3.2575 8.40724L2.37074 12.3134C2.30586 12.6006 2.41733 12.8975 2.65564 13.0698C2.78373 13.1623 2.93359 13.2094 3.08471 13.2094C3.21501 13.2094 3.34426 13.1743 3.46026 13.1049L6.89202 11.0538L10.3225 13.1049C10.5735 13.2559 10.89 13.2421 11.1278 13.0698C11.3662 12.897 11.4775 12.6 11.4127 12.3134L10.5259 8.40724L13.5331 5.77043C13.7543 5.57692 13.8387 5.27131 13.748 4.99168V4.99168Z" fill="#C9C9C9"/>
</svg>
