<svg width="31" height="31" viewBox="0 0 31 31" fill="none" xmlns="http://www.w3.org/2000/svg">
<path fill-rule="evenodd" clip-rule="evenodd" d="M0 15.5C0 11.3598 1.6123 7.46743 4.5398 4.5398C7.46743 1.6123 11.3598 0 15.5 0C19.6402 0 23.5326 1.6123 26.4602 4.5398C29.3877 7.46743 31 11.3598 31 15.5C31 15.5836 30.9993 15.667 30.998 15.7503C30.9344 19.7969 29.3286 23.5916 26.4602 26.4602C23.5935 29.3268 19.8017 30.9324 15.758 30.9979C15.6722 30.9993 15.5862 31 15.5 31C11.3598 31 7.46743 29.3877 4.5398 26.4602C1.6123 23.5326 0 19.6402 0 15.5Z" fill="#4B4B4B"/>
<path d="M26.4602 4.5398C23.5326 1.6123 19.6402 0 15.5 0C11.3598 0 7.46743 1.6123 4.5398 4.5398C1.6123 7.46743 0 11.3598 0 15.5C0 19.6402 1.6123 23.5326 4.5398 26.4602C7.46743 29.3877 11.3598 31 15.5 31C19.6402 31 23.5326 29.3877 26.4602 26.4602C29.3877 23.5326 31 19.6402 31 15.5C31 11.3598 29.3877 7.46743 26.4602 4.5398ZM15.5 6.11523C17.0023 6.11523 18.2246 7.33749 18.2246 8.83984C18.2246 10.3422 17.0023 11.5645 15.5 11.5645C13.9977 11.5645 12.7754 10.3422 12.7754 8.83984C12.7754 7.33749 13.9977 6.11523 15.5 6.11523ZM19.375 24.2793H11.5039V22.4629H12.7754V15.1973H11.5645V13.3809H18.2246V22.4629H19.375V24.2793Z" fill="#FFCD2E"/>
</svg>
