<svg width="50" height="26" viewBox="0 0 50 26" fill="none" xmlns="http://www.w3.org/2000/svg">
<path d="M41.9827 0.858181C38.1069 -0.633614 32.4522 -0.553607 28.2053 4.14568L26.9192 5.5687L30.761 10.2325L32.5489 8.07098C33.8625 6.61758 35.5304 5.84926 37.3724 5.84926C38.8735 5.84926 40.4889 6.40677 41.6936 7.34047C42.8121 8.20745 44.1456 9.81247 44.1456 12.5349C44.1456 15.2573 42.8122 16.8623 41.6935 17.7293C40.4889 18.663 38.8735 19.2205 37.3724 19.2205C35.5305 19.2205 33.8625 18.4523 32.5489 16.9988L21.7948 4.14578C17.5479 -0.553413 11.8932 -0.633615 8.01726 0.858278C4.14149 2.35007 0 6.20104 0 12.5349C0 18.8689 4.14158 22.72 8.01736 24.2119C11.893 25.7036 17.5478 25.6236 21.7948 20.9244L23.091 19.49L19.2418 14.8341L17.4513 16.9989C16.1377 18.4524 14.4698 19.2206 12.6278 19.2206C11.1267 19.2206 9.51131 18.6631 8.30662 17.7294C7.18799 16.8624 5.85464 15.2574 5.85464 12.535C5.85464 9.81257 7.18799 8.20755 8.30662 7.34057C9.51121 6.40677 11.1267 5.84936 12.6278 5.84936C14.4698 5.84936 16.1377 6.61758 17.4513 8.07108L28.2053 20.9244C32.4523 25.6236 38.107 25.7039 41.9827 24.2119C45.8586 22.72 50 18.869 50 12.535C50 6.20104 45.8586 2.35007 41.9827 0.858181Z" fill="#FFCD2E"/>
<path d="M12.6276 8.10645C11.5589 8.10645 8.78516 8.78108 8.78516 11.8615C8.78516 13.094 9.22817 14.0624 10.1019 14.7396C10.936 15.3861 11.9535 15.6164 12.6276 15.6164C13.6373 15.6164 14.4976 15.2128 15.2565 14.3828L17.3409 11.8615L15.2565 9.34024C14.4977 8.51009 13.6374 8.10645 12.6276 8.10645Z" fill="#4B4B4B"/>
<path d="M37.372 15.6164C38.4408 15.6164 41.2145 14.9419 41.2145 11.8615C41.2145 10.6288 40.7715 9.66056 39.8978 8.98329C39.0637 8.33679 38.0461 8.10645 37.372 8.10645C36.3623 8.10645 35.502 8.51009 34.7431 9.34015L32.6587 11.8615L34.7431 14.3828C35.5021 15.2128 36.3623 15.6164 37.372 15.6164Z" fill="#4B4B4B"/>
</svg>
