<svg width="26" height="28" viewBox="0 0 26 28" fill="none" xmlns="http://www.w3.org/2000/svg">
<path d="M0 1C0 0.447715 0.447715 0 1 0H24.8462C25.3984 0 25.8462 0.447715 25.8462 1V27C25.8462 27.5523 25.3984 28 24.8462 28H1C0.447716 28 0 27.5523 0 27V1Z" fill="#FFCD2E"/>
<path d="M23.7311 21.3221C23.5419 20.0445 22.7729 18.9719 20.4954 17.9711C19.7043 17.5772 18.8222 17.2951 18.5594 16.6457C18.466 16.2677 18.4537 16.0548 18.5127 15.8259C18.6822 15.0833 19.5003 14.8517 20.1489 15.0647C20.5666 15.2164 20.9622 15.5651 21.2005 16.1213C22.3159 15.3388 22.3134 15.3441 23.0923 14.8065C22.8073 14.3274 22.6549 14.1065 22.4682 13.9016C21.7975 13.0898 20.8836 12.6719 19.4217 12.7039C19.1687 12.7385 18.9132 12.7757 18.6601 12.8103C17.9304 13.0099 17.2351 13.4251 16.8273 13.9814C15.6038 15.4852 15.9526 18.1175 17.4415 19.2008C18.9082 20.3932 21.0629 20.6647 21.3381 21.7799C21.6059 23.1453 20.4119 23.5871 19.2252 23.4301C18.3505 23.2331 17.8641 22.7514 17.3383 21.8757C16.3703 22.4826 16.3703 22.4826 15.3753 23.1027C15.6112 23.6616 15.8593 23.9145 16.2549 24.3989C18.127 26.4563 22.8122 26.3552 23.6525 23.2411C23.6868 23.1346 23.9129 22.4213 23.7311 21.3221V21.3221ZM14.051 12.8688H11.6335C11.6335 15.1312 11.6237 17.3776 11.6237 19.6399C11.6237 21.0799 11.6925 22.4 11.4763 22.8046C11.1225 23.6004 10.2061 23.5019 9.78839 23.3475C9.36336 23.1213 9.14715 22.7992 8.89655 22.3441C8.82776 22.2137 8.77617 22.1126 8.75895 22.1046C8.10299 22.5384 7.44944 22.9749 6.79346 23.4088C7.12024 24.1354 7.60176 24.7662 8.21844 25.176C9.13976 25.7749 10.378 25.9586 11.6728 25.6365C12.5155 25.3703 13.2427 24.8194 13.6235 23.981C14.1739 22.8818 14.0559 21.551 14.051 20.0791C14.0633 17.6784 14.051 15.2776 14.051 12.8688Z" fill="#4B4B4B"/>
</svg>
