<svg width="29" height="26" viewBox="0 0 29 26" fill="none" xmlns="http://www.w3.org/2000/svg">
<path d="M23.6871 8.25867C23.3813 8.15628 23.0754 8.05958 22.7695 7.96857C22.8205 7.7581 22.8658 7.54763 22.9111 7.33717C23.6078 3.94695 23.149 1.22227 21.6027 0.323521C20.1131 -0.53541 17.6832 0.35765 15.225 2.50782C14.9814 2.71829 14.7436 2.94013 14.517 3.16197C14.3641 3.01408 14.2055 2.86618 14.0469 2.72397C11.4697 0.425909 8.88691 -0.541098 7.34063 0.363339C5.85664 1.22796 5.41484 3.79337 6.03789 7.00156C6.1002 7.3201 6.16816 7.63296 6.24746 7.9515C5.88496 8.05389 5.52812 8.16766 5.19394 8.28711C2.16934 9.33944 0 11.0004 0 12.7183C0 14.493 2.31094 16.2735 5.45449 17.3542C5.70938 17.4396 5.96426 17.5249 6.2248 17.5988C6.13984 17.9401 6.06621 18.2757 5.99824 18.6227C5.40352 21.7797 5.86797 24.2826 7.35195 25.1415C8.88125 26.0289 11.4527 25.1187 13.9562 22.9174C14.1545 22.741 14.3527 22.559 14.551 22.3656C14.8002 22.6102 15.0607 22.8434 15.3213 23.0709C17.7455 25.1642 20.1414 26.0118 21.6197 25.1529C23.149 24.2655 23.6475 21.5749 23.0018 18.2985C22.9508 18.0482 22.8941 17.7922 22.8318 17.5306C23.0131 17.4794 23.1887 17.4225 23.3643 17.3656C26.6324 16.2791 29 14.5215 29 12.7183C29 10.9947 26.7684 9.32238 23.6871 8.25867ZM16.0236 3.42932C18.1307 1.58632 20.0961 0.863907 20.991 1.38154C21.9482 1.9333 22.3164 4.16311 21.716 7.09257C21.6764 7.28597 21.6367 7.47369 21.5857 7.6614C20.3283 7.37699 19.0539 7.17221 17.7738 7.05844C17.0375 6.00042 16.2332 4.98791 15.3609 4.03797C15.5818 3.8275 15.7971 3.62841 16.0236 3.42932ZM9.47031 15.6705C9.75918 16.1654 10.0537 16.6603 10.3652 17.1438C9.48164 17.0471 8.60371 16.9049 7.73711 16.7171C7.98633 15.898 8.29785 15.0505 8.66035 14.1859C8.9209 14.6864 9.18711 15.1813 9.47031 15.6705ZM7.7541 8.8275C8.56973 8.64547 9.43633 8.49758 10.3369 8.38381C10.0367 8.85594 9.74219 9.33944 9.46465 9.82863C9.18711 10.3121 8.91523 10.807 8.66035 11.3076C8.30351 10.46 8.00332 9.62954 7.7541 8.8275ZM9.30605 12.7467C9.67988 11.9617 10.0877 11.1938 10.5182 10.4373C10.9486 9.68074 11.4131 8.94695 11.9002 8.22454C12.7498 8.16197 13.6164 8.12784 14.5 8.12784C15.3836 8.12784 16.2559 8.16197 17.0998 8.22454C17.5813 8.94126 18.04 9.67505 18.4762 10.4259C18.9123 11.1768 19.3201 11.9447 19.7053 12.724C19.3258 13.509 18.918 14.2826 18.4818 15.0448C18.0514 15.8013 17.5926 16.5351 17.1111 17.2632C16.2672 17.3258 15.3893 17.3542 14.5 17.3542C13.6107 17.3542 12.7498 17.3258 11.9172 17.2746C11.4244 16.5522 10.96 15.8127 10.5238 15.0562C10.0877 14.2996 9.68555 13.5317 9.30605 12.7467ZM19.5354 15.6591C19.8242 15.1586 20.0961 14.6523 20.3623 14.1403C20.7248 14.9652 21.042 15.8013 21.3195 16.6603C20.4416 16.8593 19.5523 17.0129 18.6574 17.1153C18.9633 16.6375 19.2521 16.1483 19.5354 15.6591ZM20.351 11.3076C20.0848 10.807 19.8129 10.3065 19.5297 9.81726C19.2521 9.33375 18.9633 8.85594 18.6631 8.38381C19.575 8.49758 20.4473 8.65116 21.2629 8.83887C21.0023 9.68074 20.6965 10.4999 20.351 11.3076ZM14.5113 4.90827C15.1061 5.55674 15.6668 6.23933 16.1879 6.94468C15.0664 6.89348 13.9393 6.89348 12.8178 6.94468C13.3729 6.21089 13.9449 5.5283 14.5113 4.90827ZM7.94102 1.42136C8.89258 0.863907 11.0053 1.66027 13.2313 3.63979C13.3729 3.76493 13.5145 3.90145 13.6617 4.03797C12.7838 4.98791 11.9738 6.00042 11.2318 7.05844C9.95176 7.17221 8.68301 7.3713 7.42559 7.65002C7.35195 7.35992 7.28965 7.06413 7.22734 6.76834C6.69492 4.01521 7.04609 1.93899 7.94102 1.42136ZM6.55332 16.4157C6.31543 16.3474 6.0832 16.2735 5.85098 16.1938C4.64453 15.8127 3.27383 15.2097 2.28262 14.4191C1.71055 14.0209 1.32539 13.4066 1.21777 12.7183C1.21777 11.6773 3.00762 10.3463 5.59043 9.44183C5.91328 9.32807 6.2418 9.22568 6.57031 9.12898C6.95547 10.3633 7.41992 11.5749 7.95801 12.7467C7.41426 13.9356 6.94414 15.1642 6.55332 16.4157ZM13.1576 21.9902C12.223 22.8491 11.1412 23.5317 9.96309 23.9981C9.33437 24.2996 8.60938 24.3281 7.96367 24.0721C7.06309 23.5488 6.68926 21.5408 7.19902 18.8389C7.26133 18.5203 7.3293 18.2018 7.40859 17.8889C8.67734 18.162 9.95742 18.3497 11.2545 18.4464C12.0021 19.5101 12.8234 20.5283 13.7014 21.4839C13.5201 21.6603 13.3389 21.8309 13.1576 21.9902ZM14.5453 20.6079C13.9676 19.9822 13.3898 19.2882 12.8291 18.5431C13.3729 18.5658 13.9336 18.5772 14.5 18.5772C15.0834 18.5772 15.6555 18.5658 16.2219 18.5374C15.7008 19.2598 15.14 19.9481 14.5453 20.6079ZM21.9482 22.3144C21.8973 23.0084 21.5574 23.6568 21.0137 24.0948C20.1131 24.6182 18.193 23.9356 16.1199 22.1494C15.882 21.9447 15.6441 21.7228 15.4006 21.4953C16.2672 20.534 17.0658 19.5158 17.7908 18.4464C19.0879 18.3383 20.3793 18.1392 21.6537 17.8491C21.7104 18.0823 21.7613 18.3155 21.8066 18.5431C22.0842 19.7717 22.1295 21.0516 21.9482 22.3144ZM22.9791 16.1995C22.8205 16.2507 22.6619 16.3019 22.4977 16.3474C22.1012 15.1074 21.6141 13.8958 21.0533 12.7183C21.5971 11.5579 22.0559 10.3633 22.441 9.14035C22.7355 9.22568 23.0188 9.31669 23.2906 9.4077C25.9301 10.3178 27.7822 11.6716 27.7822 12.7069C27.7822 13.8218 25.8055 15.2609 22.9791 16.1995Z" fill="#FFCD2E"/>
<circle cx="14.5001" cy="12.4289" r="2.07143" fill="#4B4B4B"/>
</svg>
