<svg width="31" height="31" viewBox="0 0 31 31" fill="none" xmlns="http://www.w3.org/2000/svg">
<ellipse cx="15.025" cy="15.4103" rx="15.025" ry="15.4103" fill="#FFCD2E"/>
<path d="M22.0445 12.616C21.9098 10.5137 20.508 8.6529 18.4934 7.63636H20.2738C20.468 8.11151 20.9834 8.45455 21.5938 8.45455C22.3692 8.45455 23 7.90402 23 7.22727C23 6.55053 22.3692 6 21.5938 6C20.9834 6 20.468 6.34304 20.2738 6.81818H16.4062V6H13.5938V6.81818H9.72616C9.532 6.34304 9.01656 6 8.40625 6C7.63081 6 7 6.55053 7 7.22727C7 7.90402 7.63081 8.45455 8.40625 8.45455C9.01656 8.45455 9.532 8.11151 9.72616 7.63609H11.5067C9.49197 8.65293 8.09022 10.5129 7.95547 12.616C7.40181 12.781 7 13.2343 7 13.7727C7 14.4495 7.63081 15 8.40625 15C9.18169 15 9.8125 14.4495 9.8125 13.7727C9.8125 13.2511 9.43616 12.8075 8.90934 12.6301C9.07591 10.3039 11.0125 8.33959 13.5938 7.80185V8.45455H16.4062V7.80185C18.9875 8.33959 20.9241 10.3039 21.0907 12.6301C20.5638 12.8075 20.1875 13.2511 20.1875 13.7727C20.1875 14.4495 20.8183 15 21.5938 15C22.3692 15 23 14.4495 23 13.7727C23 13.2343 22.5982 12.781 22.0445 12.616Z" fill="#4B4B4B"/>
<path d="M11 21H19V23H11V21Z" fill="#4B4B4B"/>
<path d="M11 16.2753L12.9037 19.9067H16.8159L18.7196 16.2753L15.4004 11V16.8135H14.3192V11L11 16.2753Z" fill="#4B4B4B"/>
</svg>
