<svg width="31" height="31" viewBox="0 0 31 31" fill="none" xmlns="http://www.w3.org/2000/svg">
<ellipse cx="15.025" cy="15.4103" rx="15.025" ry="15.4103" fill="#FFCD2E"/>
<path d="M22.9251 13.3943C22.7736 11.0447 21.1965 8.96501 18.93 7.82888H20.9331C21.1515 8.35992 21.7314 8.74332 22.418 8.74332C23.2903 8.74332 24 8.12802 24 7.37166C24 6.6153 23.2903 6 22.418 6C21.7314 6 21.1515 6.38339 20.9331 6.91444H16.582V6H13.418V6.91444H9.06693C8.8485 6.38339 8.26863 6 7.58203 6C6.70966 6 6 6.6153 6 7.37166C6 8.12802 6.70966 8.74332 7.58203 8.74332C8.26863 8.74332 8.8485 8.35992 9.06693 7.82857H11.07C8.80346 8.96504 7.2265 11.0439 7.0749 13.3943C6.45204 13.5787 6 14.0854 6 14.6872C6 15.4435 6.70966 16.0588 7.58203 16.0588C8.4544 16.0588 9.16406 15.4435 9.16406 14.6872C9.16406 14.1042 8.74068 13.6084 8.14801 13.4102C8.33539 10.8102 10.514 8.61484 13.418 8.01384V8.74332H16.582V8.01384C19.486 8.61484 21.6646 10.8102 21.852 13.4102C21.2593 13.6084 20.8359 14.1042 20.8359 14.6872C20.8359 15.4435 21.5456 16.0588 22.418 16.0588C23.2903 16.0588 24 15.4435 24 14.6872C24 14.0854 23.548 13.5787 22.9251 13.3943Z" fill="#4B4B4B"/>
<path d="M10.5 22.7646H19.5V24.9999H10.5V22.7646Z" fill="#4B4B4B"/>
<path d="M10.5 17.4838L12.6417 21.5424H17.0429L19.1846 17.4838L15.4505 11.5879V18.0853H14.2341V11.5879L10.5 17.4838Z" fill="#4B4B4B"/>
</svg>
