<svg width="27" height="27" viewBox="0 0 27 27" fill="none" xmlns="http://www.w3.org/2000/svg">
<path d="M26.5378 4.82932C26.292 2.52672 24.4735 0.707794 22.1707 0.46225C16.3959 -0.154083 10.6041 -0.154083 4.82952 0.46225C2.52672 0.708 0.708 2.52672 0.46225 4.82932C-0.154083 10.6039 -0.154083 16.3959 0.46225 22.1705C0.708 24.4733 2.52672 26.292 4.82932 26.5378C10.6039 27.1541 16.3959 27.1541 22.1707 26.5378C24.4735 26.292 26.292 24.4733 26.5378 22.1705C27.1541 16.3959 27.1541 10.6041 26.5378 4.82932V4.82932Z" fill="url(#paint0_radial)"/>
<path d="M25.0692 5.8059C24.8512 3.76265 23.2375 2.14869 21.194 1.93054C16.0697 1.38383 10.9302 1.38383 5.8059 1.93054C3.76265 2.14869 2.14869 3.76265 1.93054 5.8059C1.38383 10.9302 1.38383 16.0697 1.93054 21.1938C2.14869 23.2373 3.76265 24.8512 5.8059 25.0692C10.9302 25.6161 16.0697 25.6161 21.1938 25.0692C23.2373 24.8512 24.8512 23.2373 25.0692 21.1938C25.6161 16.0697 25.6161 10.9302 25.0692 5.8059V5.8059Z" fill="url(#paint1_linear)"/>
<path d="M0.404297 21.6113C0.422836 21.798 0.441994 21.9846 0.461975 22.1712C0.707725 24.4738 2.52644 26.2925 4.82925 26.5383C10.6039 27.1546 16.3958 27.1546 22.1704 26.5383C24.4732 26.2925 26.2917 24.4738 26.5375 22.1712C26.5575 21.9846 26.5766 21.798 26.5954 21.6113H0.404297Z" fill="url(#paint2_linear)"/>
<path d="M26.5374 22.1704C26.8686 19.0675 27.0215 15.9596 26.9968 12.8522L20.8252 6.68066C20.0542 5.80045 18.928 5.25107 17.6047 5.20348C14.8833 5.10543 12.1533 5.11038 9.43149 5.2039C7.17091 5.28176 5.59012 6.80117 5.18472 9.03435C5.11324 9.42862 5.0704 9.82804 5.01416 10.2252V16.7721C5.04527 16.9843 5.091 17.1954 5.10521 17.4088C5.19585 18.7671 5.75409 19.9306 6.6479 20.7177L12.9282 26.9978C16.0103 27.0194 19.0926 26.8662 22.1703 26.5376C24.4731 26.2919 26.2917 24.4732 26.5374 22.1704V22.1704Z" fill="url(#paint3_linear)"/>
<path d="M26.5375 22.1703C26.292 24.4727 24.4729 26.2919 22.1705 26.5374C19.0931 26.8658 16.0102 27.0192 12.9286 26.9976L6.65771 20.7267C7.38467 21.3631 8.33224 21.7505 9.43183 21.7919C12.153 21.8941 14.8837 21.8914 17.6048 21.7934C20.066 21.7044 21.8471 19.8828 21.9239 17.4216C22.0059 14.8083 22.0059 12.1883 21.9239 9.57507C21.8889 8.43964 21.4903 7.44057 20.8295 6.68457L26.9971 12.8522C27.0214 15.9592 26.8686 19.0675 26.5375 22.1703Z" fill="url(#paint4_linear)"/>
<path d="M16.6858 10.5767C15.8952 9.7159 14.7608 9.17578 13.4999 9.17578C11.1116 9.17578 9.17529 11.1121 9.17529 13.5004C9.17529 14.7613 9.71541 15.8957 10.5763 16.6863L20.582 26.692C21.1116 26.6459 21.6412 26.5946 22.1704 26.5382C24.4732 26.2924 26.2919 24.4737 26.5377 22.1709C26.5941 21.6417 26.6454 21.1121 26.6916 20.5825L16.6858 10.5767Z" fill="url(#paint5_linear)"/>
<path d="M26.9478 16.4083L18.8951 8.35585C18.7072 8.10928 18.4112 7.94922 18.0773 7.94922C17.5091 7.94922 17.0483 8.40982 17.0483 8.97816C17.0483 9.31207 17.2084 9.60809 17.455 9.79595L26.8038 19.145C26.8672 18.233 26.9152 17.3207 26.9478 16.4083V16.4083Z" fill="url(#paint6_linear)"/>
<path d="M5.01416 10.2252C5.0704 9.82804 5.11324 9.42862 5.18472 9.03435C5.58991 6.80117 7.17091 5.28176 9.43149 5.2039C12.1533 5.11038 14.8833 5.10543 17.6047 5.20348C20.0651 5.29206 21.8469 7.11387 21.9238 9.57508C22.0055 12.1885 22.0055 14.8083 21.9238 17.4218C21.8469 19.883 20.0657 21.7046 17.6049 21.7934C14.8835 21.8916 12.1529 21.8941 9.43169 21.7919C6.97089 21.6995 5.2698 19.8735 5.10521 17.4086C5.091 17.1954 5.04527 16.9841 5.01416 16.7719C5.01416 14.5896 5.01416 12.4073 5.01416 10.2252V10.2252ZM13.5019 20.3347C14.7474 20.3347 15.994 20.372 17.2378 20.3261C19.188 20.2538 20.3875 19.0899 20.433 17.1416C20.4894 14.714 20.4894 12.2831 20.433 9.85523C20.3875 7.90736 19.1871 6.7163 17.2378 6.6749C14.7636 6.62257 12.2868 6.62299 9.81258 6.6749C7.87809 6.71548 6.67509 7.88243 6.62256 9.80888C6.55582 12.2672 6.55582 14.7299 6.62256 17.1882C6.67509 19.1144 7.87809 20.2544 9.81278 20.3261C11.0409 20.3718 12.2721 20.3347 13.5019 20.3347V20.3347Z" fill="url(#paint7_linear)"/>
<path d="M5.01416 10.2252C5.0704 9.82804 5.11324 9.42862 5.18472 9.03435C5.58991 6.80117 7.17091 5.28176 9.43149 5.2039C12.1533 5.11038 14.8833 5.10543 17.6047 5.20348C20.0651 5.29206 21.8469 7.11387 21.9238 9.57508C22.0055 12.1885 22.0055 14.8083 21.9238 17.4218C21.8469 19.883 20.0657 21.7046 17.6049 21.7934C14.8835 21.8916 12.1529 21.8941 9.43169 21.7919C6.97089 21.6995 5.2698 19.8735 5.10521 17.4086C5.091 17.1954 5.04527 16.9841 5.01416 16.7719C5.01416 14.5896 5.01416 12.4073 5.01416 10.2252V10.2252ZM13.5019 20.3347C14.7474 20.3347 15.994 20.372 17.2378 20.3261C19.188 20.2538 20.3875 19.0899 20.433 17.1416C20.4894 14.714 20.4894 12.2831 20.433 9.85523C20.3875 7.90736 19.1871 6.7163 17.2378 6.6749C14.7636 6.62257 12.2868 6.62299 9.81258 6.6749C7.87809 6.71548 6.67509 7.88243 6.62256 9.80888C6.55582 12.2672 6.55582 14.7299 6.62256 17.1882C6.67509 19.1144 7.87809 20.2544 9.81278 20.3261C11.0409 20.3718 12.2721 20.3347 13.5019 20.3347V20.3347Z" fill="white"/>
<path d="M13.4999 9.17578C11.1116 9.17578 9.17529 11.1119 9.17529 13.5002C9.17529 15.8887 11.1116 17.8248 13.4999 17.8248C15.8884 17.8248 17.8246 15.8887 17.8246 13.5002C17.8246 11.1119 15.8884 9.17578 13.4999 9.17578ZM13.4999 16.3359C11.9338 16.3359 10.6642 15.0664 10.6642 13.5002C10.6642 11.934 11.9338 10.6645 13.4999 10.6645C15.0661 10.6645 16.3356 11.934 16.3356 13.5002C16.3356 15.0664 15.0661 16.3359 13.4999 16.3359Z" fill="white"/>
<path d="M19.106 8.97816C19.106 9.54629 18.6454 10.0069 18.0773 10.0069C17.5091 10.0069 17.0483 9.54629 17.0483 8.97816C17.0483 8.40982 17.5091 7.94922 18.0773 7.94922C18.6454 7.94922 19.106 8.40982 19.106 8.97816Z" fill="white"/>
<defs>
<radialGradient id="paint0_radial" cx="0" cy="0" r="1" gradientUnits="userSpaceOnUse" gradientTransform="translate(5.53485 23.5959) scale(29.7762)">
<stop stop-color="#FAE100"/>
<stop offset="0.0544" stop-color="#FADC04"/>
<stop offset="0.1167" stop-color="#FBCE0E"/>
<stop offset="0.1829" stop-color="#FCB720"/>
<stop offset="0.2514" stop-color="#FE9838"/>
<stop offset="0.3054" stop-color="#FF7950"/>
<stop offset="0.4922" stop-color="#FF1C74"/>
<stop offset="1" stop-color="#6C1CD1"/>
</radialGradient>
<linearGradient id="paint1_linear" x1="10.3556" y1="11.7312" x2="-35.3856" y2="-13.9982" gradientUnits="userSpaceOnUse">
<stop stop-color="#A1B5D8" stop-opacity="0"/>
<stop offset="0.3094" stop-color="#90A2BD" stop-opacity="0.309804"/>
<stop offset="0.7554" stop-color="#7C8B9C" stop-opacity="0.756863"/>
<stop offset="1" stop-color="#748290"/>
</linearGradient>
<linearGradient id="paint2_linear" x1="13.4997" y1="23.8347" x2="13.4997" y2="28.0433" gradientUnits="userSpaceOnUse">
<stop stop-color="#FAE100" stop-opacity="0"/>
<stop offset="0.3068" stop-color="#FCA800" stop-opacity="0.305882"/>
<stop offset="0.6275" stop-color="#FE7300" stop-opacity="0.627451"/>
<stop offset="0.8685" stop-color="#FF5200" stop-opacity="0.866667"/>
<stop offset="1" stop-color="#FF4500"/>
</linearGradient>
<linearGradient id="paint3_linear" x1="11.9636" y1="11.9257" x2="5.28157" y2="5.24358" gradientUnits="userSpaceOnUse">
<stop stop-color="#833AB4" stop-opacity="0"/>
<stop offset="1" stop-color="#833AB4"/>
</linearGradient>
<linearGradient id="paint4_linear" x1="18.5043" y1="24.6945" x2="15.1691" y2="8.97176" gradientUnits="userSpaceOnUse">
<stop stop-color="#833AB4" stop-opacity="0"/>
<stop offset="1" stop-color="#833AB4"/>
</linearGradient>
<linearGradient id="paint5_linear" x1="19.7735" y1="19.774" x2="6.37768" y2="6.37815" gradientUnits="userSpaceOnUse">
<stop stop-color="#833AB4" stop-opacity="0"/>
<stop offset="1" stop-color="#833AB4"/>
</linearGradient>
<linearGradient id="paint6_linear" x1="20.7672" y1="11.6681" x2="16.3375" y2="7.23837" gradientUnits="userSpaceOnUse">
<stop stop-color="#833AB4" stop-opacity="0"/>
<stop offset="1" stop-color="#833AB4"/>
</linearGradient>
<linearGradient id="paint7_linear" x1="18.8605" y1="8.17632" x2="7.93843" y2="19.0984" gradientUnits="userSpaceOnUse">
<stop stop-color="#833AB4"/>
<stop offset="0.0922" stop-color="#9C3495"/>
<stop offset="0.2927" stop-color="#DC2546"/>
<stop offset="0.392" stop-color="#FD1D1D"/>
<stop offset="0.5589" stop-color="#FC6831"/>
<stop offset="0.6887" stop-color="#FC9B40"/>
<stop offset="0.7521" stop-color="#FCAF45"/>
<stop offset="0.7806" stop-color="#FDB750"/>
<stop offset="0.8656" stop-color="#FECB6A"/>
<stop offset="0.9415" stop-color="#FFD87A"/>
<stop offset="1" stop-color="#FFDC80"/>
</linearGradient>
</defs>
</svg>
