<svg width="35" height="35" viewBox="0 0 35 35" fill="none" xmlns="http://www.w3.org/2000/svg">
<g clip-path="url(#clip0)">
<path d="M29.872 5.1234C23.0368 -1.70973 11.9564 -1.70809 5.12328 5.12716C-1.70986 11.9624 -1.70822 23.0428 5.12704 29.8759C11.9623 36.709 23.0427 36.7074 29.8758 29.8722C33.1575 26.5895 35.0006 22.1376 34.9995 17.4959C34.9986 12.855 33.1542 8.40451 29.872 5.1234ZM26.5027 24.3769C26.5019 24.3777 26.5012 24.3785 26.5003 24.3793V24.3735L25.6137 25.2543C24.4669 26.4155 22.7968 26.8933 21.2095 26.5143C19.6102 26.0862 18.0899 25.4048 16.7062 24.496C15.4206 23.6744 14.2292 22.7139 13.1537 21.6318C12.164 20.6494 11.2749 19.5707 10.4995 18.4118C9.65127 17.1648 8.97991 15.8063 8.50447 14.3751C7.95944 12.6937 8.41109 10.8488 9.67116 9.60928L10.7095 8.57097C10.9982 8.28099 11.4672 8.27996 11.7571 8.56864C11.7579 8.56939 11.7587 8.57015 11.7595 8.57097L15.0378 11.8493C15.3278 12.138 15.3288 12.607 15.0401 12.897C15.0394 12.8977 15.0386 12.8985 15.0378 12.8993L13.1128 14.8243C12.5604 15.3706 12.491 16.2388 12.9495 16.866C13.6457 17.8215 14.4162 18.7206 15.2537 19.5552C16.1874 20.4929 17.2024 21.346 18.287 22.1043C18.9136 22.5414 19.7632 22.4677 20.3053 21.9293L22.1661 20.0393C22.4548 19.7494 22.9239 19.7483 23.2138 20.037C23.2145 20.0378 23.2153 20.0385 23.2161 20.0393L26.5003 23.3293C26.7903 23.618 26.7914 24.087 26.5027 24.3769Z" fill="#FFCD2E"/>
</g>
<defs>
<clipPath id="clip0">
<rect width="35" height="35" fill="white"/>
</clipPath>
</defs>
</svg>
