<svg width="454" height="235" viewBox="0 0 454 235" fill="none" xmlns="http://www.w3.org/2000/svg">
<path fill-rule="evenodd" clip-rule="evenodd" d="M161.512 80.4552C164.971 76.0768 167 70.7482 167 65C167 50.0883 153.345 38 136.5 38C119.655 38 106 50.0883 106 65C106 79.9117 119.655 92 136.5 92C137.288 92 138.068 91.9736 138.841 91.9216C151.785 91.9009 172.41 88.2148 192.326 74.618L147.652 231.907L155.348 234.093L203.348 65.0929L207.05 52.0594L196.863 60.9926C185.133 71.2783 172.608 77.2118 161.512 80.4552Z" fill="#FF7A30"/>
<path fill-rule="evenodd" clip-rule="evenodd" d="M61.3877 134.8C64.5877 139.067 69.721 141.2 76.7877 141.2C82.521 141.2 87.3877 139.467 91.3877 136C95.521 132.533 97.9877 127.4 98.7877 120.6C97.5877 121.4 95.3877 121.8 92.1877 121.8C89.2544 121.8 87.1877 121.067 85.9877 119.6C84.7877 118.133 84.1877 116.067 84.1877 113.4C84.1877 111.133 84.5877 108.067 85.3877 104.2C86.321 100.2 87.321 96.1333 88.3877 92C90.121 85.2 91.4544 79.4667 92.3877 74.8C93.321 70 93.7877 65.6667 93.7877 61.8C93.7877 54.2 91.7877 48.5333 87.7877 44.8C83.7877 41.0667 78.3877 39.2 71.5877 39.2C62.6544 39.2 54.8544 42.8667 48.1877 50.2L58.9877 -1.90735e-06L29.3877 4.00001L0.387695 140H29.1877L43.3877 73.4C44.9877 68.6 47.0544 64.7333 49.5877 61.8C52.2544 58.8667 55.1877 57.4 58.3877 57.4C63.1877 57.4 65.5877 60.8 65.5877 67.6C65.5877 70.4 65.121 74.0667 64.1877 78.6C63.2544 83.1333 62.2544 87.7333 61.1877 92.4C60.921 93.3333 60.3877 95.4667 59.5877 98.8C58.921 102.133 58.2544 105.6 57.5877 109.2C56.921 112.667 56.5877 115.8 56.5877 118.6C56.5877 125.133 58.1877 130.533 61.3877 134.8ZM315.995 134.8C319.861 139.067 325.861 141.2 333.995 141.2C340.928 141.2 347.595 138.733 353.995 133.8C355.051 132.981 356.086 132.036 357.1 130.967L355.185 140H383.985L397.585 75.8C399.185 70.3333 401.319 65.9333 403.985 62.6C406.652 59.1333 409.719 57.4 413.185 57.4C417.985 57.4 420.385 60.8 420.385 67.6C420.385 70.4 419.919 74.0667 418.985 78.6C418.052 83.1333 417.052 87.7333 415.985 92.4C415.719 93.3333 415.185 95.4667 414.385 98.8C413.719 102.133 413.052 105.6 412.385 109.2C411.719 112.667 411.385 115.8 411.385 118.6C411.385 125.133 412.985 130.533 416.185 134.8C419.385 139.067 424.519 141.2 431.585 141.2C437.319 141.2 442.185 139.467 446.185 136C450.319 132.533 452.785 127.4 453.585 120.6C452.385 121.4 450.185 121.8 446.985 121.8C444.052 121.8 441.985 121.067 440.785 119.6C439.585 118.133 438.985 116.067 438.985 113.4C438.985 111.133 439.385 108.067 440.185 104.2C441.119 100.2 442.119 96.1333 443.185 92C444.919 85.2 446.252 79.4667 447.185 74.8C448.119 70 448.585 65.6667 448.585 61.8C448.585 54.2 446.585 48.5333 442.585 44.8C438.585 41.0667 433.185 39.2 426.385 39.2C417.452 39.2 409.652 42.9333 402.985 50.4L405.185 40H376.385L362.753 104.305C360.367 110.252 357.981 114.684 355.595 117.6C353.195 120.4 349.995 121.8 345.995 121.8C343.061 121.8 340.995 121.067 339.795 119.6C338.595 118.133 337.995 116.067 337.995 113.4C337.995 111.133 338.395 108.067 339.195 104.2C340.128 100.2 341.128 96.1333 342.195 92C343.928 85.2 345.261 79.4667 346.195 74.8C347.128 70 347.595 65.6667 347.595 61.8C347.595 54.2 345.595 48.5333 341.595 44.8C337.595 41.0667 332.195 39.2 325.395 39.2C314.195 39.2 304.928 44.8667 297.595 56.2C295.595 44.7333 288.728 39 276.995 39C267.528 39 259.395 42.8 252.595 50.4L254.795 40H225.995L204.795 140H233.595L247.195 75.8C248.795 70.2 250.928 65.7333 253.595 62.4C256.395 58.9333 259.661 57.2 263.395 57.2C267.395 57.2 269.395 60.1333 269.395 66C269.395 67.7333 269.195 69.4 268.795 71L254.195 140H282.995L296.595 75.8C298.195 70.3333 300.328 65.9333 302.995 62.6C305.661 59.1333 308.728 57.4 312.195 57.4C316.995 57.4 319.395 60.8 319.395 67.6C319.395 70.4 318.928 74.0667 317.995 78.6C317.061 83.1333 316.061 87.7333 314.995 92.4C314.728 93.3333 314.195 95.4667 313.395 98.8C312.728 102.133 312.061 105.6 311.395 109.2C310.728 112.667 310.395 115.8 310.395 118.6C310.395 125 312.261 130.4 315.995 134.8Z" fill="white"/>
</svg>
