<svg width="30" height="30" viewBox="0 0 30 30" fill="none" xmlns="http://www.w3.org/2000/svg">
<circle cx="15" cy="15" r="15" fill="#FFD962"/>
<path d="M13.3076 10.7178C13.1609 10.7178 13.0342 10.6644 12.9276 10.5578C12.8209 10.4511 12.7676 10.3244 12.7676 10.1778V7.75777C12.7676 7.61111 12.8209 7.48444 12.9276 7.37777C13.0342 7.27111 13.1609 7.21777 13.3076 7.21777H16.6876C16.8342 7.21777 16.9609 7.27111 17.0676 7.37777C17.1742 7.48444 17.2276 7.61111 17.2276 7.75777V10.1778C17.2276 10.3244 17.1742 10.4511 17.0676 10.5578C16.9609 10.6644 16.8342 10.7178 16.6876 10.7178H13.3076ZM13.2076 22.2178C13.0609 22.2178 12.9342 22.1644 12.8276 22.0578C12.7209 21.9511 12.6676 21.8244 12.6676 21.6778V12.3578C12.6676 12.2111 12.7209 12.0844 12.8276 11.9778C12.9342 11.8711 13.0609 11.8178 13.2076 11.8178H16.7876C16.9342 11.8178 17.0609 11.8711 17.1676 11.9778C17.2742 12.0844 17.3276 12.2111 17.3276 12.3578V21.6778C17.3276 21.8244 17.2742 21.9511 17.1676 22.0578C17.0609 22.1644 16.9342 22.2178 16.7876 22.2178H13.2076Z" fill="#323232"/>
</svg>
