<svg width="670" height="447" viewBox="0 0 670 447" fill="none" xmlns="http://www.w3.org/2000/svg">
<g opacity="0.2">
<circle opacity="0.8" cx="223.334" cy="223.335" r="222.934" stroke="#696969" stroke-width="0.8" stroke-dasharray="5 8"/>
<circle opacity="0.8" cx="446.667" cy="223.334" r="222.934" stroke="#696969" stroke-width="0.8" stroke-dasharray="5 8"/>
<path opacity="0.01" fill-rule="evenodd" clip-rule="evenodd" d="M335.005 416.789C401.76 378.174 446.672 305.998 446.672 223.333C446.672 140.668 401.76 68.4928 335.005 29.8774C268.25 68.4928 223.338 140.668 223.338 223.333C223.338 305.998 268.25 378.174 335.005 416.789Z" fill="#FFCD2E"/>
<g opacity="0.2">
<path d="M175.558 240.7C174.369 221.182 161.99 203.905 144.199 194.467H159.922C161.636 198.879 166.188 202.064 171.578 202.064C178.425 202.064 183.996 196.952 183.996 190.669C183.996 184.386 178.425 179.274 171.578 179.274C166.188 179.274 161.636 182.459 159.922 186.871H125.768V179.274H100.931V186.871H66.7773C65.0627 182.459 60.511 179.274 55.1214 179.274C48.2737 179.274 42.7031 184.386 42.7031 190.669C42.7031 196.952 48.2737 202.064 55.1214 202.064C60.511 202.064 65.0627 198.879 66.7773 194.465H82.5008C64.7092 203.906 52.3306 221.175 51.1407 240.7C46.2514 242.232 42.7031 246.441 42.7031 251.44C42.7031 257.723 48.2737 262.835 55.1214 262.835C61.9692 262.835 67.5397 257.723 67.5397 251.44C67.5397 246.597 64.2163 242.479 59.5641 240.832C61.035 219.234 78.1364 200.996 100.931 196.004V202.064H125.768V196.004C148.563 200.996 165.664 219.234 167.135 240.832C162.483 242.479 159.159 246.597 159.159 251.44C159.159 257.723 164.73 262.835 171.578 262.835C178.425 262.835 183.996 257.723 183.996 251.44C183.996 246.441 180.448 242.232 175.558 240.7Z" fill="#FF2E2E"/>
<path d="M97.9268 261.293H129.91V270.431H97.9268V261.293Z" fill="#FF2E2E"/>
<path d="M97.3975 239.694L105.265 258.277H121.434L129.302 239.694L115.584 212.698V242.448H111.116V212.698L97.3975 239.694Z" fill="#FF2E2E"/>
</g>
<g opacity="0.2">
<path d="M528.826 255.068L482.799 229.967V216.064L528.826 191.104V207.434L496.753 222.841L528.826 238.829V255.068Z" fill="#2E75FF"/>
<path d="M536.686 263.853L567.209 182.313H576.852L546.258 263.853H536.686Z" fill="#2E75FF"/>
<path d="M587.18 255.068V238.829L619.246 222.97L587.18 207.234V191.098L633.206 216.089V229.908L587.18 255.068Z" fill="#2E75FF"/>
</g>
</g>
</svg>
