<svg width="144" height="144" viewBox="0 0 144 144" fill="none" xmlns="http://www.w3.org/2000/svg">
<rect x="17" y="11" width="104" height="111" rx="9" fill="#FFCD2E"/>
<g filter="url(#filter0_d)">
<path fill-rule="evenodd" clip-rule="evenodd" d="M11 3C6.02944 3 2 7.02944 2 12V128C2 132.971 6.02944 137 11 137H127C131.971 137 136 132.971 136 128V12C136 7.02944 131.971 3 127 3H11ZM63.2565 69.5C63.2565 66.3693 65.8031 63.8223 68.9342 63.8223C72.0649 63.8223 74.612 66.3693 74.612 69.5C74.612 72.6307 72.0649 75.1777 68.9342 75.1777C65.8036 75.1777 63.2565 72.6307 63.2565 69.5ZM49.6865 76.4811C49.6865 74.5167 48.0883 72.9186 46.124 72.9186C44.1596 72.9186 42.5615 74.5167 42.5615 76.4811C42.5615 78.4454 44.1596 80.0436 46.124 80.0436C48.0883 80.0436 49.6865 78.4454 49.6865 76.4811ZM90.4672 67.6196C89.9741 68.2467 89.4409 68.8742 88.8734 69.5C89.4409 70.1258 89.9741 70.7533 90.4676 71.3804C94.295 76.2449 95.4135 80.6376 93.6161 83.75C93.4774 83.9909 93.3217 84.2201 93.1521 84.4388C92.8682 82.9959 92.1337 81.7139 91.1013 80.7441C91.2195 78.8881 90.0771 76.2854 87.8427 73.4456C87.434 72.9264 86.9956 72.4058 86.5294 71.8857C84.8712 73.4517 83.0065 74.9873 80.9813 76.4554C80.4899 81.1781 79.4979 85.5221 78.072 89.0881C75.7732 94.835 72.5277 98 68.9339 98C65.3405 98 62.0951 94.835 59.7967 89.0881C59.5002 88.3475 59.2231 87.5717 58.9653 86.7672C58.1394 86.9459 57.3293 87.0938 56.5395 87.2077C55.244 87.3943 54.0268 87.4869 52.8966 87.4869C48.6818 87.4869 45.6698 86.2044 44.253 83.75C44.1156 83.5117 43.996 83.2651 43.892 83.0111C44.5926 83.2512 45.3428 83.3838 46.1238 83.3838C46.8209 83.3838 47.4941 83.2786 48.1286 83.0855C49.6798 84.1079 52.4982 84.4158 56.0629 83.9022C56.7174 83.8078 57.3875 83.6882 58.0707 83.5447C57.5437 81.3256 57.1462 78.9429 56.887 76.4545C53.0427 73.6678 49.7763 70.6376 47.4015 67.6196C43.5742 62.7555 42.4561 58.3624 44.253 55.25C46.0499 52.1376 50.4134 50.9099 56.5391 51.7923C57.3288 51.9062 58.139 52.0541 58.9648 52.2328C59.2231 51.4283 59.5002 50.6529 59.7963 49.9119C62.0951 44.165 65.3401 41 68.9339 41C69.2101 41 69.4849 41.0196 69.7576 41.057C68.6882 41.9941 67.9102 43.2553 67.578 44.6856C65.915 45.5153 64.2368 47.8041 62.8974 51.1522C62.6517 51.7662 62.4204 52.4063 62.2029 53.0695C64.389 53.7232 66.6521 54.5703 68.937 55.5909C73.2718 53.6553 77.5292 52.3398 81.3296 51.7923C87.4561 50.9095 91.8197 52.1376 93.6161 55.25C95.413 58.3624 94.295 62.7555 90.4672 67.6196ZM90.7238 56.9199C89.687 55.1239 86.3533 54.4429 81.8062 55.0982C79.0643 55.4931 76.0493 56.3294 72.9287 57.5392C73.6658 57.9301 74.402 58.3367 75.1352 58.7599C79.4709 61.2626 83.3731 64.1341 86.5294 67.1143C86.9956 66.5946 87.434 66.0736 87.8427 65.5544C90.6838 61.9436 91.761 58.716 90.7238 56.9199ZM47.1458 56.9199C46.1086 58.716 47.1854 61.944 50.0264 65.5544C51.7389 67.7309 53.9707 69.9236 56.5787 72.0205C56.5482 71.1869 56.5321 70.3463 56.5321 69.5C56.5321 64.4937 57.0679 59.6788 58.0712 55.4553C57.388 55.3118 56.7178 55.1922 56.0633 55.0982C51.5159 54.4429 48.1825 55.1239 47.1458 56.9199ZM61.304 56.2846C60.3708 60.2341 59.872 64.7651 59.872 69.5C59.872 74.2349 60.3703 78.7659 61.304 82.7154C65.1914 81.5491 69.3649 79.7152 73.4653 77.3478C77.5662 74.9807 81.2409 72.2832 84.195 69.5C81.2409 66.7164 77.5662 64.0193 73.4653 61.6522C69.3649 59.2848 65.1914 57.4509 61.304 56.2846ZM68.9339 94.6602C71.0078 94.6602 73.2644 92.1135 74.9709 87.8478C75.9998 85.2755 76.7834 82.2466 77.2957 78.9394C76.5886 79.3825 75.8684 79.817 75.1348 80.2401C70.7995 82.7433 66.3621 84.6872 62.2029 85.9305C62.4204 86.5937 62.6517 87.2338 62.8974 87.8478C64.6034 92.1135 66.8604 94.6602 68.9339 94.6602ZM86.3802 82.2097C84.4154 82.2097 82.8177 83.8078 82.8177 85.7722C82.8177 87.7365 84.4154 89.3347 86.3802 89.3347C88.3445 89.3347 89.9427 87.7365 89.9427 85.7722C89.9427 83.8078 88.3441 82.2097 86.3802 82.2097ZM77.8627 46.2472C77.8627 48.2116 76.2646 49.8097 74.3002 49.8097C72.3359 49.8097 70.7377 48.2116 70.7377 46.2472C70.7377 44.2829 72.3359 42.6847 74.3002 42.6847C76.2646 42.6847 77.8627 44.2829 77.8627 46.2472Z" fill="#2A2E35"/>
</g>
<defs>
<filter id="filter0_d" x="0" y="0" width="144" height="144" filterUnits="userSpaceOnUse" color-interpolation-filters="sRGB">
<feFlood flood-opacity="0" result="BackgroundImageFix"/>
<feColorMatrix in="SourceAlpha" type="matrix" values="0 0 0 0 0 0 0 0 0 0 0 0 0 0 0 0 0 0 127 0"/>
<feOffset dx="3" dy="2"/>
<feGaussianBlur stdDeviation="2.5"/>
<feColorMatrix type="matrix" values="0 0 0 0 0 0 0 0 0 0 0 0 0 0 0 0 0 0 0.4 0"/>
<feBlend mode="normal" in2="BackgroundImageFix" result="effect1_dropShadow"/>
<feBlend mode="normal" in="SourceGraphic" in2="effect1_dropShadow" result="shape"/>
</filter>
</defs>
</svg>
