<svg width="144" height="144" viewBox="0 0 144 144" fill="none" xmlns="http://www.w3.org/2000/svg">
<rect x="12" y="16" width="113" height="99" rx="9" fill="#FFCD2E"/>
<g filter="url(#filter0_d)">
<path fill-rule="evenodd" clip-rule="evenodd" d="M11 3C6.02944 3 2 7.02944 2 12V128C2 132.971 6.02944 137 11 137H127C131.971 137 136 132.971 136 128V12C136 7.02944 131.971 3 127 3H11ZM57.5654 67.7742L45.9058 56.1146C51.5835 51.0639 58.9041 47.8533 66.9667 47.3809V63.8827C63.4264 64.281 60.212 65.657 57.5654 67.7742ZM43.0073 59.0132C37.5293 65.1711 34.0331 73.2528 34.0331 82.1238C34.0331 83.2568 34.9499 84.1736 36.0829 84.1736H48.5184C49.6514 84.1736 50.5682 83.2568 50.5682 82.1238C50.5682 77.7764 52.1421 73.8291 54.6669 70.6728L43.0073 59.0132ZM82.4003 65.9097C83.163 65.4153 84.1638 65.4933 84.8545 66.0958C85.5391 66.6963 85.7453 67.6772 85.3609 68.5019L76.4511 87.6307C75.1139 90.5112 72.1954 92.3729 69.0166 92.3729C64.4945 92.3729 60.8173 88.6957 60.8173 84.1736C60.8173 81.3591 62.2346 78.7749 64.6107 77.2576L82.4003 65.9097ZM95.0255 59.0132L89.0007 65.038C89.7594 66.6575 89.8591 68.5533 89.076 70.2333L86.3806 76.0199C87.0745 77.9261 87.4646 79.9749 87.4646 82.1238C87.4646 83.2568 88.3814 84.1736 89.5144 84.1736H101.95C103.083 84.1736 104 83.2568 104 82.1238C104 73.2528 100.504 65.1711 95.0255 59.0132ZM71.0664 63.8827V47.3809C79.129 47.8533 86.4495 51.0639 92.1272 56.1146L86.1007 62.1412C83.9505 61.1225 81.886 61.3575 80.1965 62.4523L75.9795 65.1425C74.4366 64.5113 72.7922 64.0769 71.0664 63.8827Z" fill="#2A2E35"/>
</g>
<defs>
<filter id="filter0_d" x="0" y="0" width="144" height="144" filterUnits="userSpaceOnUse" color-interpolation-filters="sRGB">
<feFlood flood-opacity="0" result="BackgroundImageFix"/>
<feColorMatrix in="SourceAlpha" type="matrix" values="0 0 0 0 0 0 0 0 0 0 0 0 0 0 0 0 0 0 127 0"/>
<feOffset dx="3" dy="2"/>
<feGaussianBlur stdDeviation="2.5"/>
<feColorMatrix type="matrix" values="0 0 0 0 0 0 0 0 0 0 0 0 0 0 0 0 0 0 0.4 0"/>
<feBlend mode="normal" in2="BackgroundImageFix" result="effect1_dropShadow"/>
<feBlend mode="normal" in="SourceGraphic" in2="effect1_dropShadow" result="shape"/>
</filter>
</defs>
</svg>
