<svg width="142" height="142" viewBox="0 0 142 142" fill="none" xmlns="http://www.w3.org/2000/svg">
<rect x="14" y="14" width="111" height="107" rx="9" fill="#FFCD2E"/>
<g filter="url(#filter0_d)">
<path fill-rule="evenodd" clip-rule="evenodd" d="M10 2C5.02944 2 1 6.02944 1 11V127C1 131.971 5.02944 136 10 136H126C130.971 136 135 131.971 135 127V11C135 6.02944 130.971 2 126 2H10ZM40.5129 56.9608C42.3735 47.8386 49.7433 40.4341 58.8517 38.536C73.958 35.3767 87.6354 46.5913 87.981 61.4237L95.061 72.0441C95.3547 72.4839 95.4451 73.03 95.31 73.5419C95.173 74.0537 94.825 74.483 94.3511 74.719L87.9882 77.9004V84.1421C87.9882 87.1957 85.5042 89.6792 82.4511 89.6792H73.2226V99.1543C73.2226 100.174 72.3969 101 71.3765 101H49.2281C48.2076 101 47.3824 100.174 47.3824 99.1543V79.3082C41.3819 73.5616 38.8172 65.2723 40.5129 56.9608ZM60.3023 82.2964H67.6855C68.7055 82.2964 69.5312 81.4712 69.5312 80.4507C69.5312 79.4308 68.7055 78.605 67.6855 78.605H60.3023C59.2823 78.605 58.4566 79.4308 58.4566 80.4507C58.4566 81.4712 59.2823 82.2964 60.3023 82.2964ZM65.8398 52.9796V50.9191C65.8398 49.8991 65.0141 49.0734 63.9941 49.0734C62.9737 49.0734 62.1484 49.8986 62.1484 50.9191V52.9599C62.126 52.9644 62.1035 52.9655 62.0811 52.9666C62.0579 52.9678 62.0347 52.9689 62.0115 52.9738C60.8997 53.2074 59.8927 53.7222 58.9545 54.3442L57.4693 52.8585C56.7483 52.1375 55.5799 52.1375 54.8594 52.8585C54.1384 53.5795 54.1384 54.7474 54.8594 55.4684L56.3249 56.9344C55.763 57.7765 55.2968 58.6777 55.0521 59.6664C55.0303 59.7546 55.0233 59.8424 55.0163 59.9301C55.0105 60.0025 55.0047 60.075 54.9906 60.1476H52.9195C51.8995 60.1476 51.0738 60.9733 51.0738 61.9933C51.0738 63.0137 51.8995 63.839 52.9195 63.839H54.9757C55.2838 65.3621 55.95 66.7978 57.0021 68.0173C57.9682 69.1386 58.4566 70.2561 58.4566 71.3429V73.0679C58.4566 74.0879 59.2823 74.9136 60.3023 74.9136H67.6855C68.7055 74.9136 69.5312 74.0879 69.5312 73.0679V70.9122C69.5312 69.8125 70.182 68.8858 70.7281 68.3037C71.9076 67.0463 72.6896 65.501 73.028 63.839H75.0683C76.0888 63.839 76.914 63.0137 76.914 61.9933C76.914 60.9733 76.0888 60.1476 75.0683 60.1476H73.0174C72.7824 58.9921 72.3031 57.9193 71.6572 56.9406L73.1289 55.4684C73.8499 54.7474 73.8499 53.5795 73.1289 52.8585C72.4079 52.1375 71.24 52.1375 70.519 52.8585L69.0424 54.3355C68.0561 53.6852 66.9838 53.2127 65.8398 52.9796Z" fill="#2A2E35"/>
</g>
<defs>
<filter id="filter0_d" x="0" y="0" width="142" height="142" filterUnits="userSpaceOnUse" color-interpolation-filters="sRGB">
<feFlood flood-opacity="0" result="BackgroundImageFix"/>
<feColorMatrix in="SourceAlpha" type="matrix" values="0 0 0 0 0 0 0 0 0 0 0 0 0 0 0 0 0 0 127 0"/>
<feOffset dx="3" dy="2"/>
<feGaussianBlur stdDeviation="2"/>
<feColorMatrix type="matrix" values="0 0 0 0 0 0 0 0 0 0 0 0 0 0 0 0 0 0 0.4 0"/>
<feBlend mode="normal" in2="BackgroundImageFix" result="effect1_dropShadow"/>
<feBlend mode="normal" in="SourceGraphic" in2="effect1_dropShadow" result="shape"/>
</filter>
</defs>
</svg>
