<svg width="144" height="144" viewBox="0 0 144 144" fill="none" xmlns="http://www.w3.org/2000/svg">
<rect x="15" y="16" width="110" height="96" rx="9" fill="#FFCD2E"/>
<g filter="url(#filter0_d)">
<path fill-rule="evenodd" clip-rule="evenodd" d="M11 3C6.02944 3 2 7.02944 2 12V128C2 132.971 6.02944 137 11 137H127C131.971 137 136 132.971 136 128V12C136 7.02944 131.971 3 127 3H11ZM75.0491 93H41.2641C39.2673 93 37.6487 91.3811 37.6487 89.3846V87.5769C37.6487 86.5784 38.4581 85.7692 39.4564 85.7692H74.0436V89.3846C74.0436 90.7075 74.4265 91.9323 75.0491 93ZM41.2641 51.4231V82.1538H74.0436V60.4615C74.0436 56.4736 77.2865 53.2308 81.2744 53.2308H95.7359V51.4231C95.7359 48.4327 93.3032 46 90.3128 46H46.6872C43.6968 46 41.2641 48.4327 41.2641 51.4231ZM81.2744 56.8462H95.7359C97.7289 56.8462 99.3513 58.4685 99.3513 60.4615V89.3846C99.3513 91.3777 97.7289 93 95.7359 93H81.2744C79.2813 93 77.659 91.3777 77.659 89.3846V60.4615C77.659 58.4685 79.2813 56.8462 81.2744 56.8462ZM90.3128 64.0769C90.3128 63.0784 89.5035 62.2692 88.5051 62.2692C87.5068 62.2692 86.6974 63.0784 86.6974 64.0769C86.6974 65.0753 87.5068 65.8846 88.5051 65.8846C89.5035 65.8846 90.3128 65.0753 90.3128 64.0769ZM84.8897 85.7692C84.8897 86.7684 85.6983 87.5769 86.6974 87.5769H90.3128C91.312 87.5769 92.1205 86.7684 92.1205 85.7692C92.1205 84.7701 91.312 83.9615 90.3128 83.9615H86.6974C85.6983 83.9615 84.8897 84.7701 84.8897 85.7692Z" fill="#2A2E35"/>
</g>
<defs>
<filter id="filter0_d" x="0" y="0" width="144" height="144" filterUnits="userSpaceOnUse" color-interpolation-filters="sRGB">
<feFlood flood-opacity="0" result="BackgroundImageFix"/>
<feColorMatrix in="SourceAlpha" type="matrix" values="0 0 0 0 0 0 0 0 0 0 0 0 0 0 0 0 0 0 127 0"/>
<feOffset dx="3" dy="2"/>
<feGaussianBlur stdDeviation="2.5"/>
<feColorMatrix type="matrix" values="0 0 0 0 0 0 0 0 0 0 0 0 0 0 0 0 0 0 0.4 0"/>
<feBlend mode="normal" in2="BackgroundImageFix" result="effect1_dropShadow"/>
<feBlend mode="normal" in="SourceGraphic" in2="effect1_dropShadow" result="shape"/>
</filter>
</defs>
</svg>
