<svg width="30" height="30" viewBox="0 0 30 30" fill="none" xmlns="http://www.w3.org/2000/svg">
<circle cx="15" cy="15" r="15" fill="#FFCD2E"/>
<path d="M13.9193 10.5078C13.7873 10.5078 13.6793 10.4658 13.5953 10.3818C13.5113 10.2978 13.4693 10.1898 13.4693 10.0578V8.43777C13.4693 8.30577 13.5113 8.19777 13.5953 8.11377C13.6793 8.02977 13.7873 7.98777 13.9193 7.98777H16.0793C16.2113 7.98777 16.3193 8.02977 16.4033 8.11377C16.4873 8.19777 16.5293 8.30577 16.5293 8.43777V10.0578C16.5293 10.1898 16.4873 10.2978 16.4033 10.3818C16.3193 10.4658 16.2113 10.5078 16.0793 10.5078H13.9193ZM13.9373 21.2178C13.8053 21.2178 13.6973 21.1758 13.6133 21.0918C13.5293 21.0078 13.4873 20.8998 13.4873 20.7678V12.3078C13.4873 12.1758 13.5293 12.0678 13.6133 11.9838C13.6973 11.8998 13.8053 11.8578 13.9373 11.8578H16.0613C16.1933 11.8578 16.3013 11.8998 16.3853 11.9838C16.4693 12.0678 16.5113 12.1758 16.5113 12.3078V20.7678C16.5113 20.8878 16.4693 20.9958 16.3853 21.0918C16.3013 21.1758 16.1933 21.2178 16.0613 21.2178H13.9373Z" fill="#323232"/>
</svg>
