<svg width="27" height="27" viewBox="0 0 27 27" fill="none" xmlns="http://www.w3.org/2000/svg">
<circle cx="13.5" cy="13.5" r="13.5" fill="#6A6A6A"/>
<path d="M12.4189 8.9858C12.2869 8.9858 12.1789 8.9438 12.0949 8.8598C12.0109 8.7758 11.9689 8.6678 11.9689 8.5358V6.9158C11.9689 6.7838 12.0109 6.6758 12.0949 6.5918C12.1789 6.5078 12.2869 6.4658 12.4189 6.4658H14.5789C14.7109 6.4658 14.8189 6.5078 14.9029 6.5918C14.9869 6.6758 15.0289 6.7838 15.0289 6.9158V8.5358C15.0289 8.6678 14.9869 8.7758 14.9029 8.8598C14.8189 8.9438 14.7109 8.9858 14.5789 8.9858H12.4189ZM12.4369 19.6958C12.3049 19.6958 12.1969 19.6538 12.1129 19.5698C12.0289 19.4858 11.9869 19.3778 11.9869 19.2458V10.7858C11.9869 10.6538 12.0289 10.5458 12.1129 10.4618C12.1969 10.3778 12.3049 10.3358 12.4369 10.3358H14.5609C14.6929 10.3358 14.8009 10.3778 14.8849 10.4618C14.9689 10.5458 15.0109 10.6538 15.0109 10.7858V19.2458C15.0109 19.3658 14.9689 19.4738 14.8849 19.5698C14.8009 19.6538 14.6929 19.6958 14.5609 19.6958H12.4369Z" fill="#323232"/>
</svg>
