<svg width="38" height="19" viewBox="0 0 38 19" fill="none" xmlns="http://www.w3.org/2000/svg">
<path d="M31.0719 0.63515C28.2033 -0.468945 24.0182 -0.409731 20.8751 3.06826L19.9232 4.12146L22.7666 7.57321L24.0898 5.97342C25.062 4.89774 26.2965 4.3291 27.6598 4.3291C28.7707 4.3291 29.9663 4.74172 30.8579 5.43276C31.6857 6.07443 32.6726 7.26232 32.6726 9.27725C32.6726 11.2921 31.6858 12.48 30.8578 13.1217C29.9663 13.8127 28.7707 14.2253 27.6598 14.2253C26.2965 14.2253 25.062 13.6568 24.0898 12.581L16.1306 3.06834C12.9874 -0.409587 8.80232 -0.468945 5.93367 0.635221C3.06516 1.73932 0 4.58946 0 9.27725C0 13.9651 3.06523 16.8153 5.93374 17.9195C8.80217 19.0235 12.9873 18.9643 16.1306 15.4864L17.0899 14.4248L14.2411 10.9789L12.9159 12.5811C11.9437 13.6568 10.7092 14.2254 9.34594 14.2254C8.23498 14.2254 7.03942 13.8128 6.14782 13.1217C5.31991 12.4801 4.33309 11.2922 4.33309 9.27732C4.33309 7.26239 5.31991 6.0745 6.14782 5.43284C7.03935 4.74172 8.23498 4.32918 9.34594 4.32918C10.7092 4.32918 11.9437 4.89774 12.9159 5.9735L20.8751 15.4864C24.0183 18.9643 28.2034 19.0237 31.0719 17.9195C33.9405 16.8153 37.0056 13.9652 37.0056 9.27732C37.0056 4.58946 33.9405 1.73932 31.0719 0.63515Z" fill="#6A6A6A"/>
<path d="M9.3458 6C8.55484 6 6.50195 6.4993 6.50195 8.77914C6.50195 9.69135 6.82983 10.4081 7.47649 10.9092C8.09378 11.3877 8.84686 11.5582 9.3458 11.5582C10.0931 11.5582 10.7298 11.2595 11.2915 10.6452L12.8341 8.77914L11.2915 6.91315C10.7298 6.29874 10.0932 6 9.3458 6Z" fill="#323232"/>
<path d="M27.6593 11.5582C28.4503 11.5582 30.5032 11.059 30.5032 8.77914C30.5032 7.86686 30.1753 7.15022 29.5286 6.64897C28.9113 6.17048 28.1582 6 27.6593 6C26.912 6 26.2753 6.29874 25.7136 6.91308L24.1709 8.77914L25.7136 10.6452C26.2753 11.2595 26.912 11.5582 27.6593 11.5582Z" fill="#323232"/>
</svg>
