<svg width="28" height="30" viewBox="0 0 28 30" fill="none" xmlns="http://www.w3.org/2000/svg">
<path d="M26 0H5C3.89543 0 3 0.89543 3 2V28C3 29.1046 3.89543 30 5 30H26C27.1046 30 28 29.1046 28 28V2C28 0.89543 27.1046 0 26 0Z" fill="#FFCD2E"/>
<path d="M6 5H1C0.447715 5 0 5.44772 0 6V9C0 9.55228 0.447715 10 1 10H6C6.55228 10 7 9.55228 7 9V6C7 5.44772 6.55228 5 6 5Z" fill="#323232"/>
<path d="M6 13H1C0.447715 13 0 13.4477 0 14V17C0 17.5523 0.447715 18 1 18H6C6.55228 18 7 17.5523 7 17V14C7 13.4477 6.55228 13 6 13Z" fill="#323232"/>
<path d="M6 21H1C0.447715 21 0 21.4477 0 22V25C0 25.5523 0.447715 26 1 26H6C6.55228 26 7 25.5523 7 25V22C7 21.4477 6.55228 21 6 21Z" fill="#323232"/>
<path d="M16.1726 14.7241C18.3056 14.7241 20.0347 12.995 20.0347 10.8621C20.0347 8.72911 18.3056 7 16.1726 7C14.0397 7 12.3105 8.72911 12.3105 10.8621C12.3105 12.995 14.0397 14.7241 16.1726 14.7241Z" fill="#323232"/>
<path fill-rule="evenodd" clip-rule="evenodd" d="M23.3448 22.9995C23.3448 19.0383 20.1336 15.8271 16.1724 15.8271C12.2112 15.8271 9.00003 19.0383 9 22.9995H23.3448Z" fill="#323232"/>
</svg>
