<svg width="27" height="26" viewBox="0 0 27 26" fill="none" xmlns="http://www.w3.org/2000/svg">
<path d="M13.5 0C6.04125 0 0 5.96861 0 13.3299C0 19.2205 3.86775 24.2158 9.23063 25.977C9.90563 26.1025 10.1531 25.6899 10.1531 25.3361C10.1531 25.0195 10.1419 24.1808 10.1363 23.0696C6.381 23.8733 5.589 21.2812 5.589 21.2812C4.97475 19.7428 4.08712 19.3313 4.08712 19.3313C2.86425 18.5049 4.18162 18.5219 4.18162 18.5219C5.53725 18.6146 6.24937 19.8954 6.24937 19.8954C7.45312 21.9335 9.4095 21.3445 10.1813 21.0043C10.3028 20.1418 10.6504 19.5551 11.0363 19.2216C8.03813 18.8882 4.887 17.7419 4.887 12.6347C4.887 11.1798 5.41012 9.99063 6.27637 9.05804C6.1245 8.72117 5.66887 7.3658 6.3945 5.53C6.3945 5.53 7.52513 5.17279 10.107 6.89668C11.187 6.60051 12.3345 6.45356 13.482 6.44677C14.6295 6.45356 15.777 6.60051 16.857 6.89668C19.422 5.17279 20.5526 5.53 20.5526 5.53C21.2782 7.3658 20.8226 8.72117 20.6876 9.05804C21.5483 9.99063 22.0714 11.1798 22.0714 12.6347C22.0714 17.7555 18.9158 18.8825 15.912 19.2103C16.3845 19.6105 16.8232 20.4278 16.8232 21.6769C16.8232 23.4607 16.8064 24.8941 16.8064 25.327C16.8064 25.6763 17.0426 26.0934 17.7345 25.96C23.1356 24.2102 27 19.2115 27 13.3299C27 5.96861 20.9554 0 13.5 0Z" fill="#727272"/>
</svg>
