<svg width="28" height="27" viewBox="0 0 28 27" fill="none" xmlns="http://www.w3.org/2000/svg">
<path d="M14 0C6.265 0 0 6.19817 0 13.8426C0 19.9597 4.011 25.1472 9.5725 26.9761C10.2725 27.1064 10.5292 26.6779 10.5292 26.3105C10.5292 25.9818 10.5175 25.1108 10.5117 23.9569C6.61733 24.7915 5.796 22.0998 5.796 22.0998C5.159 20.5021 4.2385 20.0748 4.2385 20.0748C2.97033 19.2167 4.3365 19.2343 4.3365 19.2343C5.74233 19.3305 6.48083 20.6606 6.48083 20.6606C7.72917 22.7771 9.758 22.1655 10.5583 21.8122C10.6843 20.9165 11.0448 20.3072 11.445 19.9609C8.33583 19.6146 5.068 18.4243 5.068 13.1206C5.068 11.6098 5.6105 10.3749 6.50883 9.40642C6.35133 9.0566 5.87883 7.6491 6.63133 5.7427C6.63133 5.7427 7.80383 5.37175 10.4813 7.16194C11.6013 6.85438 12.7913 6.70177 13.9813 6.69473C15.1713 6.70177 16.3613 6.85438 17.4813 7.16194C20.1413 5.37175 21.3138 5.7427 21.3138 5.7427C22.0663 7.6491 21.5938 9.0566 21.4538 9.40642C22.3463 10.3749 22.8888 11.6098 22.8888 13.1206C22.8888 18.4384 19.6163 19.6087 16.5013 19.9492C16.9913 20.3647 17.4463 21.2135 17.4463 22.5106C17.4463 24.363 17.4288 25.8515 17.4288 26.3011C17.4288 26.6639 17.6738 27.097 18.3913 26.9585C23.9925 25.1413 28 19.9504 28 13.8426C28 6.19817 21.7315 0 14 0Z" fill="white"/>
</svg>
