<svg width="28" height="30" viewBox="0 0 28 30" fill="none" xmlns="http://www.w3.org/2000/svg">
<path d="M0 0H28V30H0V0Z" fill="#E2D7B5"/>
<path d="M25.7084 22.845C25.5035 21.4762 24.6704 20.327 22.2031 19.2547C21.3461 18.8327 20.3906 18.5304 20.1058 17.8346C20.0046 17.4296 19.9913 17.2015 20.0552 16.9562C20.2389 16.1606 21.1252 15.9125 21.8278 16.1406C22.2803 16.3032 22.7088 16.6768 22.967 17.2728C24.1754 16.4344 24.1727 16.4401 25.0164 15.8641C24.7077 15.3507 24.5427 15.114 24.3404 14.8945C23.6138 14.0247 22.6236 13.577 21.04 13.6112C20.7658 13.6483 20.4891 13.6882 20.2149 13.7253C19.4244 13.9391 18.6712 14.384 18.2293 14.98C16.9039 16.5912 17.2818 19.4116 18.8947 20.5722C20.4837 21.8498 22.8179 22.1407 23.116 23.3355C23.4062 24.7985 22.1126 25.2718 20.8271 25.1036C19.8795 24.8926 19.3526 24.3764 18.783 23.4382C17.7343 24.0884 17.7343 24.0884 16.6564 24.7528C16.9119 25.3517 17.1807 25.6226 17.6092 26.1416C19.6374 28.346 24.713 28.2376 25.6233 24.9011C25.6605 24.787 25.9054 24.0228 25.7084 22.845V22.845ZM15.2217 13.788H12.6027C12.6027 16.2119 12.5921 18.6188 12.5921 21.0427C12.5921 22.5855 12.6666 24 12.4324 24.4334C12.0491 25.286 11.0564 25.1806 10.6039 25.0151C10.1434 24.7727 9.90921 24.4277 9.63773 23.9401C9.56321 23.8003 9.50731 23.692 9.48865 23.6834C8.77803 24.1482 8.07002 24.6159 7.35938 25.0808C7.71339 25.8593 8.23504 26.5351 8.9031 26.9743C9.9012 27.6159 11.2426 27.8127 12.6453 27.4676C13.5583 27.1824 14.3461 26.5922 14.7586 25.6939C15.3548 24.5161 15.2271 23.0903 15.2217 21.5133C15.235 18.941 15.2217 16.3688 15.2217 13.788Z" fill="#323232"/>
</svg>
