<svg width="27" height="27" viewBox="0 0 27 27" fill="none" xmlns="http://www.w3.org/2000/svg">
<path fill-rule="evenodd" clip-rule="evenodd" d="M27 13.5C27 20.9558 20.9558 27 13.5 27C6.04416 27 0 20.9558 0 13.5C0 6.04416 6.04416 0 13.5 0C20.9558 0 27 6.04416 27 13.5ZM21.567 20.1523V14.5865C21.567 11.6061 19.9753 10.219 17.8523 10.219C16.1377 10.219 15.3729 11.1623 14.9441 11.8222V10.4469H11.7167C11.76 11.3572 11.7167 20.152 11.7167 20.152H14.9438V14.7316C14.9438 14.4407 14.9657 14.1526 15.0507 13.9452C15.2846 13.3647 15.8143 12.7653 16.7059 12.7653C17.8742 12.7653 18.3401 13.6557 18.3401 14.9595V20.1523H21.567ZM14.9441 11.8222V11.8539H14.9226C14.9257 11.8484 14.9297 11.8429 14.9338 11.8372C14.9374 11.8323 14.941 11.8272 14.9441 11.8222ZM6.5148 7.44522C6.5148 6.49321 7.237 5.76861 8.34086 5.76861C9.44496 5.76861 10.1234 6.49321 10.1448 7.44522C10.1448 8.37702 9.44496 9.12256 8.31944 9.12256H8.2985C7.21606 9.12256 6.5148 8.37702 6.5148 7.44522ZM9.93252 20.1523H6.7066V10.4469H9.93252V20.1523Z" fill="#727272"/>
</svg>
