<svg width="28" height="28" viewBox="0 0 28 28" fill="none" xmlns="http://www.w3.org/2000/svg">
<path fill-rule="evenodd" clip-rule="evenodd" d="M28 14C28 21.732 21.732 28 14 28C6.26801 28 0 21.732 0 14C0 6.26801 6.26801 0 14 0C21.732 0 28 6.26801 28 14ZM22.3656 20.8986V15.1267C22.3656 12.0359 20.715 10.5974 18.5134 10.5974C16.7352 10.5974 15.9421 11.5757 15.4974 12.26V10.8337H12.1505C12.1954 11.7778 12.1505 20.8984 12.1505 20.8984H15.4971V15.2772C15.4971 14.9755 15.5198 14.6767 15.6079 14.4616C15.8505 13.8597 16.3998 13.238 17.3244 13.238C18.5361 13.238 19.0192 14.1614 19.0192 15.5135V20.8986H22.3656ZM15.4974 12.26V12.2929H15.4752C15.4784 12.2872 15.4825 12.2814 15.4867 12.2756C15.4905 12.2704 15.4942 12.2652 15.4974 12.26ZM6.75593 7.72091C6.75593 6.73364 7.50487 5.9822 8.64962 5.9822C9.79461 5.9822 10.4981 6.73364 10.5203 7.72091C10.5203 8.68722 9.79461 9.46037 8.62741 9.46037H8.60569C7.48316 9.46037 6.75593 8.68722 6.75593 7.72091ZM10.3002 20.8986H6.95483V10.8337H10.3002V20.8986Z" fill="#F5F5F5"/>
</svg>
