<svg width="100" height="100" viewBox="0 0 100 100" fill="none" xmlns="http://www.w3.org/2000/svg">
<path fill-rule="evenodd" clip-rule="evenodd" d="M0 0H100V100H0V0ZM27.5663 43.3266C25.0013 38.8839 26.5235 33.2031 30.9662 30.6381C35.4088 28.0732 41.0896 29.5953 43.6546 34.038L56.7196 56.6673C59.2846 61.11 57.7624 66.7908 53.3198 69.3557C48.8771 71.9207 43.1963 70.3985 40.6313 65.9559L27.5663 43.3266ZM61.7999 49.2941C67.4764 49.2941 72.0781 44.6925 72.0781 39.016C72.0781 33.3396 67.4764 28.7379 61.7999 28.7379C56.1235 28.7379 51.5218 33.3396 51.5218 39.016C51.5218 44.6925 56.1235 49.2941 61.7999 49.2941Z" fill="#FFCD2E"/>
</svg>
