<svg width="41" height="42" viewBox="0 0 41 42" fill="none" xmlns="http://www.w3.org/2000/svg">
<path d="M20.2833 28.9677C21.1729 29.0103 22.0468 29.0141 22.9028 28.9865C22.278 29.7622 21.5971 30.4909 20.8655 31.1666C20.0266 30.4503 19.2425 29.6725 18.5196 28.8396C19.1 28.9013 19.6887 28.9454 20.2833 28.9677ZM20.2833 28.9677C20.2831 28.9677 20.2829 28.9676 20.2827 28.9676L20.2875 28.8678L20.2838 28.9677C20.2836 28.9677 20.2835 28.9677 20.2833 28.9677ZM10.3709 14.6987L10.3709 14.6987L10.3712 14.7013C10.3778 14.7599 10.383 14.8197 10.3883 14.8811L10.3884 14.8817C10.3914 14.9171 10.3945 14.953 10.398 14.989C10.3048 15.0257 10.2168 15.0634 10.1302 15.1006C7.00781 16.396 5.20587 18.3087 5.11081 20.506L5.11081 20.506C5.01601 22.703 6.64647 24.7744 9.63049 26.3543L9.63052 26.3543C10.0034 26.5516 10.3924 26.7394 10.7947 26.9129C10.7464 27.3518 10.7116 27.7773 10.6958 28.1994L10.6958 28.1994C10.5721 31.5736 11.5542 34.0276 13.501 35.0381C15.0891 35.8679 17.0844 35.6136 19.217 34.3823L19.2175 34.382C19.7267 34.0843 20.217 33.7555 20.6855 33.397C20.7339 33.3609 20.7828 33.3225 20.8305 33.285L20.8308 33.2848C20.8588 33.2628 20.8864 33.2411 20.9137 33.22C20.9917 33.2772 21.0715 33.3348 21.1555 33.3904C23.9326 35.3221 26.5152 35.824 28.4128 34.7284C30.3107 33.6327 31.1735 31.1412 30.8828 27.7729L30.8828 27.7729L30.8825 27.7702C30.8758 27.7115 30.8707 27.6518 30.8653 27.5904L30.8653 27.5896C30.8622 27.5543 30.8591 27.5184 30.8557 27.4825C30.9489 27.4458 31.0368 27.4079 31.1233 27.3707C31.6695 27.1472 32.1999 26.8867 32.7109 26.5916C34.8438 25.3602 36.0615 23.7595 36.1368 21.9691C36.2319 19.772 34.601 17.7005 31.6172 16.1204L31.6172 16.1204C31.2444 15.9234 30.8555 15.7355 30.4531 15.562C30.5013 15.1231 30.5363 14.6978 30.5519 14.2755C30.6901 10.8854 29.7118 8.43682 27.7587 7.42998C25.8081 6.41371 23.2485 7.02767 20.5681 9.07433C20.5198 9.11039 20.471 9.14874 20.4233 9.18615L20.4228 9.18657C20.3948 9.20858 20.3672 9.23027 20.3399 9.25133C20.2622 9.19418 20.1823 9.13645 20.0984 9.08099C17.3211 7.14915 14.7387 6.64748 12.8409 7.74316C10.943 8.83894 10.0803 11.33 10.3709 14.6987ZM16.0495 8.88273C16.9749 9.08972 18.0143 9.57258 19.1069 10.3232C18.0518 11.3369 17.0894 12.4428 16.2306 13.6281C14.7788 13.7755 13.3433 14.0548 11.9425 14.4627C11.8384 13.1399 11.9399 11.9973 12.2235 11.0917C12.5145 10.1626 12.9949 9.48955 13.6356 9.11962C14.2764 8.74969 15.0995 8.67023 16.0495 8.88273ZM25.9469 18.1642L25.947 18.1643C26.4943 19.1117 26.9905 20.088 27.4331 21.0886C27.0398 22.1085 26.5902 23.1054 26.0862 24.0748L26.086 24.0752C25.5077 25.1999 24.8575 26.2859 24.1394 27.3263C22.879 27.4233 21.6134 27.4436 20.3502 27.3866C19.2586 27.3364 18.1704 27.2273 17.0904 27.0599C15.7994 25.2908 14.7012 23.3888 13.8147 21.3862C14.6682 19.186 15.7736 17.0928 17.1084 15.1488C18.3688 15.0514 19.6342 15.0313 20.8976 15.0881C21.9891 15.1383 23.0773 15.2474 24.1574 15.4148C24.8027 16.2986 25.4 17.2163 25.9469 18.1642ZM29.1138 26.4039C28.1619 26.6949 27.1911 26.92 26.208 27.0775C26.6597 26.3503 27.0934 25.5923 27.5042 24.8068L27.5047 24.806C27.7748 24.2769 28.0302 23.7441 28.271 23.2074C28.6311 24.2504 28.9129 25.3188 29.1138 26.4039ZM13.7556 17.6612L13.7551 17.6621C13.485 18.1911 13.2296 18.724 12.9888 19.2607C12.6285 18.2175 12.3468 17.149 12.146 16.0642C13.0978 15.7729 14.0688 15.5477 15.0518 15.3905C14.6001 16.1178 14.1664 16.8757 13.7556 17.6612ZM20.9675 13.4977L20.9675 13.4977C20.0875 13.4576 19.2114 13.4488 18.3525 13.483C18.9769 12.7081 19.6573 11.9801 20.3884 11.3049C21.227 12.0211 22.0111 12.7989 22.7343 13.6319C22.1538 13.57 21.5649 13.5253 20.9675 13.4977ZM10.3673 24.9492L10.3673 24.9492L10.366 24.9485C9.15447 24.309 8.21706 23.5869 7.59189 22.8378C6.96677 22.0886 6.65794 21.3179 6.68985 20.5766C6.74242 19.3927 7.672 18.2099 9.34576 17.2435C9.76283 17.005 10.1936 16.7912 10.6355 16.6026C10.9663 18.2492 11.4613 19.8588 12.1129 21.4071C11.6542 22.6681 11.2941 23.9632 11.0355 25.2803C10.8086 25.1778 10.5847 25.0681 10.3673 24.9492ZM16.2083 28.5147C17.2252 29.8552 18.3735 31.0902 19.6361 32.2011C19.2514 32.4902 18.85 32.7566 18.4341 32.999C16.7598 33.9656 15.2746 34.1849 14.2201 33.6326L14.2199 33.6325C13.562 33.2895 13.0489 32.6367 12.7126 31.7207C12.3764 30.8047 12.2197 29.6319 12.2715 28.263L12.2715 28.2628C12.2803 28.0187 12.2954 27.7649 12.3172 27.5117C13.5866 27.9463 14.8876 28.2816 16.2083 28.5147ZM25.029 28.8397C26.481 28.6925 27.9165 28.4133 29.3173 28.0053C29.4214 29.3282 29.3199 30.4708 29.0363 31.3764C28.7453 32.3054 28.2649 32.9785 27.6242 33.3485C26.9834 33.7184 26.1603 33.7979 25.2103 33.5853C24.2849 33.3784 23.2455 32.8955 22.1529 32.1449C23.208 31.1312 24.1704 30.0253 25.029 28.8397ZM30.8925 17.5188L30.8938 17.5195C32.1053 18.159 33.0427 18.881 33.6679 19.6302C34.293 20.3794 34.6019 21.1502 34.57 21.8915C34.538 22.6325 34.1635 23.371 33.4755 24.058C32.8056 24.7269 31.8429 25.3423 30.6267 25.8563C30.2959 24.2096 29.8011 22.5997 29.1495 21.0513C29.6077 19.7915 29.9676 18.4977 30.226 17.1819C30.4521 17.2907 30.6755 17.4002 30.8925 17.5188ZM28.9728 14.2061C28.9641 14.4501 28.949 14.7037 28.9271 14.9568C27.6603 14.519 26.3611 14.1826 25.0418 13.9507C24.0266 12.612 22.8801 11.3786 21.6197 10.269C22.6744 9.47552 23.6886 8.94944 24.6023 8.70306C25.5409 8.44996 26.3667 8.49351 27.0244 8.83638C27.6824 9.17936 28.1955 9.8322 28.5317 10.7482C28.8679 11.6641 29.0246 12.8369 28.9728 14.2059L28.9728 14.2061ZM28.7212 16.5625C28.5792 17.3623 28.3938 18.1539 28.1659 18.9334C27.9003 18.4095 27.6182 17.889 27.3196 17.3717C27.021 16.8545 26.7112 16.3499 26.3901 15.8578C27.1792 16.0501 27.9574 16.2853 28.7212 16.5625ZM12.5386 25.9056C12.6806 25.1054 12.8659 24.3139 13.0938 23.5344C13.3595 24.0585 13.6416 24.5791 13.9402 25.0963C14.2388 25.6136 14.5486 26.1181 14.8695 26.6101C14.0805 26.4177 13.3025 26.1824 12.5386 25.9056Z" fill="#6A6A6A" stroke="#6A6A6A" stroke-width="0.2"/>
<circle cx="20.4855" cy="21.5294" r="3.88392" fill="#323232"/>
</svg>
