<svg width="31" height="31" viewBox="0 0 31 31" fill="none" xmlns="http://www.w3.org/2000/svg">
<ellipse cx="15.025" cy="15.4103" rx="15.025" ry="15.4103" fill="#E2D7B5"/>
<path d="M23.7838 14.1932C23.6129 11.4735 21.8343 9.06628 19.2781 7.75121H21.5372C21.7835 8.36589 22.4375 8.80967 23.2119 8.80967C24.1958 8.80967 24.9961 8.09747 24.9961 7.22197C24.9961 6.34648 24.1958 5.63428 23.2119 5.63428C22.4375 5.63428 21.7835 6.07806 21.5372 6.69274H16.63V5.63428H13.0615V6.69274H8.15426C7.90792 6.07806 7.25393 5.63428 6.47956 5.63428C5.49569 5.63428 4.69531 6.34648 4.69531 7.22197C4.69531 8.09747 5.49569 8.80967 6.47956 8.80967C7.25393 8.80967 7.90792 8.36589 8.15426 7.75085H10.4134C7.85713 9.06631 6.07858 11.4726 5.90761 14.1932C5.20513 14.4067 4.69531 14.9932 4.69531 15.6897C4.69531 16.5652 5.49569 17.2774 6.47956 17.2774C7.46344 17.2774 8.26382 16.5652 8.26382 15.6897C8.26382 15.0149 7.78631 14.441 7.11789 14.2115C7.32923 11.2021 9.78634 8.66096 13.0615 7.9653V8.80967H16.63V7.9653C19.9051 8.66096 22.3622 11.2021 22.5736 14.2115C21.9051 14.441 21.4276 15.0149 21.4276 15.6897C21.4276 16.5652 22.228 17.2774 23.2119 17.2774C24.1958 17.2774 24.9961 16.5652 24.9961 15.6897C24.9961 14.9932 24.4863 14.4067 23.7838 14.1932Z" fill="#323232"/>
<path d="M9.49902 25.2549H20.3384V28.3519H9.49902V25.2549Z" fill="#323232"/>
<path d="M9.39062 18.2523L12.117 23.706H17.7199L20.4463 18.2523L15.6927 10.3296V19.0605H14.1442V10.3296L9.39062 18.2523Z" fill="#323232"/>
</svg>
