<svg width="32" height="33" viewBox="0 0 32 33" fill="none" xmlns="http://www.w3.org/2000/svg">
<ellipse cx="16" cy="16.4103" rx="16" ry="16.4103" fill="#6A6A6A"/>
<path d="M25.3272 15.1143C25.1452 12.2182 23.2512 9.65471 20.5291 8.2543H22.9348C23.1971 8.90887 23.8935 9.38145 24.7181 9.38145C25.7659 9.38145 26.6182 8.62303 26.6182 7.69073C26.6182 6.75842 25.7659 6 24.7181 6C23.8935 6 23.1971 6.47258 22.9348 7.12715H17.7091V6H13.9091V7.12715H8.68341C8.42108 6.47258 7.72465 6 6.90004 6C5.85231 6 5 6.75842 5 7.69073C5 8.62303 5.85231 9.38145 6.90004 9.38145C7.72465 9.38145 8.42108 8.90887 8.68341 8.25393H11.0891C8.36699 9.65475 6.47303 12.2171 6.29097 15.1143C5.5429 15.3416 5 15.9662 5 16.7079C5 17.6402 5.85231 18.3987 6.90004 18.3987C7.94776 18.3987 8.80007 17.6402 8.80007 16.7079C8.80007 15.9894 8.29158 15.3782 7.57978 15.1339C7.80483 11.9291 10.4214 9.22309 13.9091 8.48229V9.38145H17.7091V8.48229C21.1968 9.22309 23.8134 11.9291 24.0384 15.1339C23.3266 15.3782 22.8181 15.9894 22.8181 16.7079C22.8181 17.6402 23.6704 18.3987 24.7181 18.3987C25.7659 18.3987 26.6182 17.6402 26.6182 16.7079C26.6182 15.9662 26.0753 15.3416 25.3272 15.1143Z" fill="#323232"/>
<path d="M10.1152 26.8936H21.658V30.1915H10.1152V26.8936Z" fill="#323232"/>
<path d="M10 19.4368L12.9033 25.2444H18.8697L21.7731 19.4368L16.711 11V20.2975H15.0621V11L10 19.4368Z" fill="#323232"/>
</svg>
